<mxfile host="65bd71144e">
    <diagram id="ZLEYI-vzXYFNbGRnPvDq" name="Page-1">
        <mxGraphModel dx="1657" dy="668" grid="1" gridSize="10" guides="1" tooltips="1" connect="1" arrows="1" fold="1" page="1" pageScale="1" pageWidth="1169" pageHeight="827" background="#ffffff" math="0" shadow="0">
            <root>
                <mxCell id="0"/>
                <mxCell id="1" parent="0"/>
                <mxCell id="3" value="" style="rounded=1;whiteSpace=wrap;html=1;strokeColor=#000000;fillColor=none;strokeWidth=2;" parent="1" vertex="1">
                    <mxGeometry x="260" y="220" width="280" height="190" as="geometry"/>
                </mxCell>
                <mxCell id="7" value="" style="group;strokeWidth=3;" parent="1" vertex="1" connectable="0">
                    <mxGeometry x="290" y="260" width="60" height="60" as="geometry"/>
                </mxCell>
                <mxCell id="4" value="" style="ellipse;whiteSpace=wrap;html=1;aspect=fixed;strokeColor=#000000;fillColor=none;strokeWidth=3;" parent="7" vertex="1">
                    <mxGeometry width="60" height="60" as="geometry"/>
                </mxCell>
                <mxCell id="5" value="" style="endArrow=none;html=1;exitX=0;exitY=1;exitDx=0;exitDy=0;strokeColor=#000000;strokeWidth=5;" parent="7" edge="1">
                    <mxGeometry width="50" height="50" relative="1" as="geometry">
                        <mxPoint x="13.786796564403346" y="46.213203435596654" as="sourcePoint"/>
                        <mxPoint x="45" y="15" as="targetPoint"/>
                    </mxGeometry>
                </mxCell>
                <mxCell id="6" value="" style="endArrow=none;html=1;exitX=1;exitY=1;exitDx=0;exitDy=0;strokeColor=#000000;strokeWidth=5;" parent="7" edge="1">
                    <mxGeometry width="50" height="50" relative="1" as="geometry">
                        <mxPoint x="46.213203435596654" y="46.213203435596654" as="sourcePoint"/>
                        <mxPoint x="15" y="15" as="targetPoint"/>
                    </mxGeometry>
                </mxCell>
                <mxCell id="10" value="" style="group;strokeWidth=3;rotation=90;direction=south;" parent="1" vertex="1" connectable="0">
                    <mxGeometry x="430" y="260" width="60" height="60" as="geometry"/>
                </mxCell>
                <mxCell id="29" value="" style="group" parent="10" vertex="1" connectable="0">
                    <mxGeometry x="-8.571428571428573" y="-3.552713678800501e-15" width="60" height="60" as="geometry"/>
                </mxCell>
                <mxCell id="11" value="" style="ellipse;whiteSpace=wrap;html=1;aspect=fixed;strokeColor=#000000;fillColor=none;strokeWidth=3;rotation=-90;" parent="29" vertex="1">
                    <mxGeometry x="1.7763568394002505e-15" y="3.552713678800501e-15" width="60" height="60" as="geometry"/>
                </mxCell>
                <mxCell id="12" value="" style="endArrow=none;html=1;strokeColor=#000000;strokeWidth=5;rounded=1;" parent="29" edge="1">
                    <mxGeometry width="50" height="50" relative="1" as="geometry">
                        <mxPoint x="49.57142857142857" y="30.000000000000004" as="sourcePoint"/>
                        <mxPoint x="9.571428571428573" y="30.000000000000004" as="targetPoint"/>
                    </mxGeometry>
                </mxCell>
                <mxCell id="13" value="" style="endArrow=none;html=1;strokeColor=#000000;strokeWidth=5;rounded=1;" parent="29" edge="1">
                    <mxGeometry width="50" height="50" relative="1" as="geometry">
                        <mxPoint x="29.571428571428573" y="10.000000000000004" as="sourcePoint"/>
                        <mxPoint x="29.571428571428573" y="50" as="targetPoint"/>
                    </mxGeometry>
                </mxCell>
                <mxCell id="19" value="" style="group" parent="1" vertex="1" connectable="0">
                    <mxGeometry x="361.43" y="330" width="60" height="50" as="geometry"/>
                </mxCell>
                <mxCell id="15" value="" style="group" parent="19" vertex="1" connectable="0">
                    <mxGeometry width="54" height="50" as="geometry"/>
                </mxCell>
                <mxCell id="2" value="" style="rounded=1;whiteSpace=wrap;html=1;fillColor=none;strokeColor=#000000;strokeWidth=3;" parent="15" vertex="1">
                    <mxGeometry width="54" height="50" as="geometry"/>
                </mxCell>
                <mxCell id="14" value="" style="triangle;whiteSpace=wrap;html=1;strokeColor=#000000;strokeWidth=3;fillColor=none;" parent="15" vertex="1">
                    <mxGeometry y="25" width="12" height="16.67" as="geometry"/>
                </mxCell>
                <mxCell id="16" value="&lt;font color=&quot;#000000&quot; style=&quot;font-size: 16px;&quot;&gt;D&lt;/font&gt;" style="text;html=1;strokeColor=none;fillColor=none;align=center;verticalAlign=middle;whiteSpace=wrap;rounded=0;strokeWidth=1;fontSize=16;fontStyle=1" parent="15" vertex="1">
                    <mxGeometry x="3.75" width="15" height="25" as="geometry"/>
                </mxCell>
                <mxCell id="17" value="&lt;font color=&quot;#000000&quot; style=&quot;font-size: 16px&quot;&gt;Q&lt;/font&gt;" style="text;html=1;strokeColor=none;fillColor=none;align=center;verticalAlign=middle;whiteSpace=wrap;rounded=0;strokeWidth=1;fontSize=16;fontStyle=1" parent="15" vertex="1">
                    <mxGeometry x="35.25" width="15" height="25" as="geometry"/>
                </mxCell>
                <mxCell id="21" value="" style="endArrow=classic;html=1;fontSize=16;fontColor=#000000;strokeColor=#005700;strokeWidth=3;entryX=0.5;entryY=0;entryDx=0;entryDy=0;exitX=1;exitY=0.5;exitDx=0;exitDy=0;fillColor=#008a00;" parent="1" source="4" target="11" edge="1">
                    <mxGeometry width="50" height="50" relative="1" as="geometry">
                        <mxPoint x="190" y="310" as="sourcePoint"/>
                        <mxPoint x="240" y="260" as="targetPoint"/>
                    </mxGeometry>
                </mxCell>
                <mxCell id="22" value="" style="endArrow=classic;html=1;fontSize=16;fontColor=#000000;strokeColor=#005700;strokeWidth=3;entryX=0;entryY=0.5;entryDx=0;entryDy=0;exitX=1;exitY=0.5;exitDx=0;exitDy=0;fillColor=#008a00;" parent="1" source="17" target="11" edge="1">
                    <mxGeometry width="50" height="50" relative="1" as="geometry">
                        <mxPoint x="360" y="380" as="sourcePoint"/>
                        <mxPoint x="431.42857142857156" y="380" as="targetPoint"/>
                        <Array as="points">
                            <mxPoint x="451" y="343"/>
                        </Array>
                    </mxGeometry>
                </mxCell>
                <mxCell id="23" value="" style="endArrow=classic;html=1;fontSize=16;fontColor=#000000;strokeColor=#005700;strokeWidth=3;entryX=0;entryY=0.25;entryDx=0;entryDy=0;exitX=0.5;exitY=1;exitDx=0;exitDy=0;fillColor=#008a00;" parent="1" source="11" target="2" edge="1">
                    <mxGeometry width="50" height="50" relative="1" as="geometry">
                        <mxPoint x="500" y="289.58" as="sourcePoint"/>
                        <mxPoint x="571.4285714285716" y="289.58" as="targetPoint"/>
                        <Array as="points">
                            <mxPoint x="510" y="290"/>
                            <mxPoint x="510" y="390"/>
                            <mxPoint x="340" y="390"/>
                            <mxPoint x="340" y="343"/>
                        </Array>
                    </mxGeometry>
                </mxCell>
                <mxCell id="24" value="" style="endArrow=classic;html=1;fontSize=16;fontColor=#000000;strokeColor=#005700;strokeWidth=3;entryX=0.5;entryY=0;entryDx=0;entryDy=0;fillColor=#008a00;" parent="1" edge="1">
                    <mxGeometry width="50" height="50" relative="1" as="geometry">
                        <mxPoint x="250" y="280" as="sourcePoint"/>
                        <mxPoint x="291.42857142857156" y="280" as="targetPoint"/>
                    </mxGeometry>
                </mxCell>
                <mxCell id="25" value="" style="endArrow=classic;html=1;fontSize=16;fontColor=#000000;strokeColor=#005700;strokeWidth=3;entryX=0.5;entryY=0;entryDx=0;entryDy=0;fillColor=#008a00;" parent="1" edge="1">
                    <mxGeometry width="50" height="50" relative="1" as="geometry">
                        <mxPoint x="250" y="300" as="sourcePoint"/>
                        <mxPoint x="291.42857142857156" y="300" as="targetPoint"/>
                    </mxGeometry>
                </mxCell>
                <mxCell id="36" value="MAC Unit" style="text;html=1;strokeColor=none;fillColor=none;align=center;verticalAlign=middle;whiteSpace=wrap;rounded=0;fontSize=22;fontColor=#000000;strokeWidth=1;fontStyle=1" parent="1" vertex="1">
                    <mxGeometry x="330.71999999999997" y="230" width="118.57" height="20" as="geometry"/>
                </mxCell>
                <mxCell id="39" value="" style="endArrow=classic;html=1;fontSize=16;fontColor=#000000;strokeColor=#005700;strokeWidth=3;fillColor=#008a00;" parent="1" edge="1">
                    <mxGeometry width="50" height="50" relative="1" as="geometry">
                        <mxPoint x="498.57" y="289.92" as="sourcePoint"/>
                        <mxPoint x="560" y="290" as="targetPoint"/>
                    </mxGeometry>
                </mxCell>
                <mxCell id="77" value="" style="group" parent="1" vertex="1" connectable="0">
                    <mxGeometry x="220" y="466" width="80" height="33.48468085106384" as="geometry"/>
                </mxCell>
                <mxCell id="56" value="&lt;span style=&quot;font-size: 11px;&quot;&gt;&lt;b style=&quot;font-size: 11px;&quot;&gt;If_queue&lt;/b&gt;&lt;/span&gt;" style="rounded=1;whiteSpace=wrap;html=1;fillColor=#60a917;strokeWidth=2;strokeColor=#2D7600;fontColor=#ffffff;fontSize=11;" parent="77" vertex="1">
                    <mxGeometry width="80" height="15.744680851063828" as="geometry"/>
                </mxCell>
                <mxCell id="76" value="&lt;span style=&quot;font-size: 11px&quot;&gt;&lt;b style=&quot;font-size: 11px&quot;&gt;w_queue&lt;/b&gt;&lt;/span&gt;" style="rounded=1;whiteSpace=wrap;html=1;fillColor=#d80073;strokeWidth=2;strokeColor=#A50040;fontColor=#ffffff;fontSize=11;" parent="77" vertex="1">
                    <mxGeometry y="17.74000000000001" width="80" height="15.744680851063828" as="geometry"/>
                </mxCell>
                <mxCell id="78" value="" style="group" parent="1" vertex="1" connectable="0">
                    <mxGeometry x="220" y="514" width="80" height="33.48468085106384" as="geometry"/>
                </mxCell>
                <mxCell id="79" value="&lt;span style=&quot;font-size: 11px;&quot;&gt;&lt;b style=&quot;font-size: 11px;&quot;&gt;If_queue&lt;/b&gt;&lt;/span&gt;" style="rounded=1;whiteSpace=wrap;html=1;fillColor=#60a917;strokeWidth=2;strokeColor=#2D7600;fontColor=#ffffff;fontSize=11;" parent="78" vertex="1">
                    <mxGeometry width="80" height="15.744680851063828" as="geometry"/>
                </mxCell>
                <mxCell id="80" value="&lt;span style=&quot;font-size: 11px&quot;&gt;&lt;b style=&quot;font-size: 11px&quot;&gt;w_queue&lt;/b&gt;&lt;/span&gt;" style="rounded=1;whiteSpace=wrap;html=1;fillColor=#d80073;strokeWidth=2;strokeColor=#A50040;fontColor=#ffffff;fontSize=11;" parent="78" vertex="1">
                    <mxGeometry y="17.74000000000001" width="80" height="15.744680851063828" as="geometry"/>
                </mxCell>
                <mxCell id="81" value="" style="group" parent="1" vertex="1" connectable="0">
                    <mxGeometry x="220" y="559" width="80" height="33.48468085106384" as="geometry"/>
                </mxCell>
                <mxCell id="82" value="&lt;span style=&quot;font-size: 11px;&quot;&gt;&lt;b style=&quot;font-size: 11px;&quot;&gt;If_queue&lt;/b&gt;&lt;/span&gt;" style="rounded=1;whiteSpace=wrap;html=1;fillColor=#60a917;strokeWidth=2;strokeColor=#2D7600;fontColor=#ffffff;fontSize=11;" parent="81" vertex="1">
                    <mxGeometry width="80" height="15.744680851063828" as="geometry"/>
                </mxCell>
                <mxCell id="83" value="&lt;span style=&quot;font-size: 11px&quot;&gt;&lt;b style=&quot;font-size: 11px&quot;&gt;w_queue&lt;/b&gt;&lt;/span&gt;" style="rounded=1;whiteSpace=wrap;html=1;fillColor=#d80073;strokeWidth=2;strokeColor=#A50040;fontColor=#ffffff;fontSize=11;" parent="81" vertex="1">
                    <mxGeometry y="17.74000000000001" width="80" height="15.744680851063828" as="geometry"/>
                </mxCell>
                <mxCell id="84" value="" style="group" parent="1" vertex="1" connectable="0">
                    <mxGeometry x="220" y="604" width="80" height="33.48468085106384" as="geometry"/>
                </mxCell>
                <mxCell id="85" value="&lt;span style=&quot;font-size: 11px;&quot;&gt;&lt;b style=&quot;font-size: 11px;&quot;&gt;If_queue&lt;/b&gt;&lt;/span&gt;" style="rounded=1;whiteSpace=wrap;html=1;fillColor=#60a917;strokeWidth=2;strokeColor=#2D7600;fontColor=#ffffff;fontSize=11;" parent="84" vertex="1">
                    <mxGeometry width="80" height="15.744680851063828" as="geometry"/>
                </mxCell>
                <mxCell id="86" value="&lt;span style=&quot;font-size: 11px&quot;&gt;&lt;b style=&quot;font-size: 11px&quot;&gt;w_queue&lt;/b&gt;&lt;/span&gt;" style="rounded=1;whiteSpace=wrap;html=1;fillColor=#d80073;strokeWidth=2;strokeColor=#A50040;fontColor=#ffffff;fontSize=11;" parent="84" vertex="1">
                    <mxGeometry y="17.74000000000001" width="80" height="15.744680851063828" as="geometry"/>
                </mxCell>
                <mxCell id="48" value="&lt;b&gt;&lt;font style=&quot;font-size: 15px&quot;&gt;MAC&lt;/font&gt;&lt;/b&gt;" style="rounded=1;whiteSpace=wrap;html=1;fillColor=#6a00ff;strokeWidth=2;strokeColor=#3700CC;fontColor=#ffffff;" parent="1" vertex="1">
                    <mxGeometry x="610" y="908.9355319148935" width="78.57" height="25.95744680851064" as="geometry"/>
                </mxCell>
                <mxCell id="49" value="&lt;b&gt;&lt;font style=&quot;font-size: 15px&quot;&gt;MAC&lt;/font&gt;&lt;/b&gt;" style="rounded=1;whiteSpace=wrap;html=1;fillColor=#6a00ff;strokeWidth=2;strokeColor=#3700CC;fontColor=#ffffff;" parent="1" vertex="1">
                    <mxGeometry x="610" y="869.9993617021277" width="78.57" height="25.95744680851064" as="geometry"/>
                </mxCell>
                <mxCell id="50" value="&lt;b&gt;&lt;font style=&quot;font-size: 15px&quot;&gt;MAC&lt;/font&gt;&lt;/b&gt;" style="rounded=1;whiteSpace=wrap;html=1;fillColor=#6a00ff;strokeWidth=2;strokeColor=#3700CC;fontColor=#ffffff;" parent="1" vertex="1">
                    <mxGeometry x="610" y="986.8078723404255" width="78.57" height="25.95744680851064" as="geometry"/>
                </mxCell>
                <mxCell id="51" value="&lt;b&gt;&lt;font style=&quot;font-size: 15px&quot;&gt;MAC&lt;/font&gt;&lt;/b&gt;" style="rounded=1;whiteSpace=wrap;html=1;fillColor=#6a00ff;strokeWidth=2;strokeColor=#3700CC;fontColor=#ffffff;" parent="1" vertex="1">
                    <mxGeometry x="610" y="947.8717021276595" width="78.57" height="25.95744680851064" as="geometry"/>
                </mxCell>
                <mxCell id="52" value="&lt;b&gt;&lt;font style=&quot;font-size: 15px&quot;&gt;MAC&lt;/font&gt;&lt;/b&gt;" style="rounded=1;whiteSpace=wrap;html=1;fillColor=#6a00ff;strokeWidth=2;strokeColor=#3700CC;fontColor=#ffffff;" parent="1" vertex="1">
                    <mxGeometry x="610" y="1064.6802127659575" width="78.57" height="25.95744680851064" as="geometry"/>
                </mxCell>
                <mxCell id="53" value="&lt;b&gt;&lt;font style=&quot;font-size: 15px&quot;&gt;MAC&lt;/font&gt;&lt;/b&gt;" style="rounded=1;whiteSpace=wrap;html=1;fillColor=#6a00ff;strokeWidth=2;strokeColor=#3700CC;fontColor=#ffffff;" parent="1" vertex="1">
                    <mxGeometry x="610" y="1025.7440425531915" width="78.57" height="25.95744680851064" as="geometry"/>
                </mxCell>
                <mxCell id="54" value="&lt;b&gt;&lt;font style=&quot;font-size: 15px&quot;&gt;MAC&lt;/font&gt;&lt;/b&gt;" style="rounded=1;whiteSpace=wrap;html=1;fillColor=#6a00ff;strokeWidth=2;strokeColor=#3700CC;fontColor=#ffffff;" parent="1" vertex="1">
                    <mxGeometry x="610" y="1142.5525531914893" width="78.57" height="25.95744680851064" as="geometry"/>
                </mxCell>
                <mxCell id="55" value="&lt;b&gt;&lt;font style=&quot;font-size: 15px&quot;&gt;MAC&lt;/font&gt;&lt;/b&gt;" style="rounded=1;whiteSpace=wrap;html=1;fillColor=#6a00ff;strokeWidth=2;strokeColor=#3700CC;fontColor=#ffffff;" parent="1" vertex="1">
                    <mxGeometry x="610" y="1103.6163829787235" width="78.57" height="25.95744680851064" as="geometry"/>
                </mxCell>
                <mxCell id="87" value="" style="group" parent="1" vertex="1" connectable="0">
                    <mxGeometry x="320" y="470" width="78.57" height="350" as="geometry"/>
                </mxCell>
                <mxCell id="40" value="&lt;b&gt;&lt;font style=&quot;font-size: 15px&quot;&gt;MAC&lt;/font&gt;&lt;/b&gt;" style="rounded=1;whiteSpace=wrap;html=1;fillColor=#6a00ff;strokeWidth=2;strokeColor=#3700CC;fontColor=#ffffff;" parent="87" vertex="1">
                    <mxGeometry y="45.65217391304345" width="78.57" height="30.434782608695645" as="geometry"/>
                </mxCell>
                <mxCell id="41" value="&lt;b&gt;&lt;font style=&quot;font-size: 15px&quot;&gt;MAC&lt;/font&gt;&lt;/b&gt;" style="rounded=1;whiteSpace=wrap;html=1;fillColor=#6a00ff;strokeWidth=2;strokeColor=#3700CC;fontColor=#ffffff;" parent="87" vertex="1">
                    <mxGeometry width="78.57" height="30.434782608695645" as="geometry"/>
                </mxCell>
                <mxCell id="42" value="&lt;b&gt;&lt;font style=&quot;font-size: 15px&quot;&gt;MAC&lt;/font&gt;&lt;/b&gt;" style="rounded=1;whiteSpace=wrap;html=1;fillColor=#6a00ff;strokeWidth=2;strokeColor=#3700CC;fontColor=#ffffff;" parent="87" vertex="1">
                    <mxGeometry y="136.9565217391304" width="78.57" height="30.434782608695645" as="geometry"/>
                </mxCell>
                <mxCell id="43" value="&lt;b&gt;&lt;font style=&quot;font-size: 15px&quot;&gt;MAC&lt;/font&gt;&lt;/b&gt;" style="rounded=1;whiteSpace=wrap;html=1;fillColor=#6a00ff;strokeWidth=2;strokeColor=#3700CC;fontColor=#ffffff;" parent="87" vertex="1">
                    <mxGeometry y="91.3043478260869" width="78.57" height="30.434782608695645" as="geometry"/>
                </mxCell>
                <mxCell id="44" value="&lt;b&gt;&lt;font style=&quot;font-size: 15px&quot;&gt;MAC&lt;/font&gt;&lt;/b&gt;" style="rounded=1;whiteSpace=wrap;html=1;fillColor=#6a00ff;strokeWidth=2;strokeColor=#3700CC;fontColor=#ffffff;" parent="87" vertex="1">
                    <mxGeometry y="228.26086956521732" width="78.57" height="30.434782608695645" as="geometry"/>
                </mxCell>
                <mxCell id="45" value="&lt;b&gt;&lt;font style=&quot;font-size: 15px&quot;&gt;MAC&lt;/font&gt;&lt;/b&gt;" style="rounded=1;whiteSpace=wrap;html=1;fillColor=#6a00ff;strokeWidth=2;strokeColor=#3700CC;fontColor=#ffffff;" parent="87" vertex="1">
                    <mxGeometry y="182.6086956521738" width="78.57" height="30.434782608695645" as="geometry"/>
                </mxCell>
                <mxCell id="46" value="&lt;b&gt;&lt;font style=&quot;font-size: 15px&quot;&gt;MAC&lt;/font&gt;&lt;/b&gt;" style="rounded=1;whiteSpace=wrap;html=1;fillColor=#6a00ff;strokeWidth=2;strokeColor=#3700CC;fontColor=#ffffff;" parent="87" vertex="1">
                    <mxGeometry y="319.5652173913043" width="78.57" height="30.434782608695645" as="geometry"/>
                </mxCell>
                <mxCell id="47" value="&lt;b&gt;&lt;font style=&quot;font-size: 15px&quot;&gt;MAC&lt;/font&gt;&lt;/b&gt;" style="rounded=1;whiteSpace=wrap;html=1;fillColor=#6a00ff;strokeWidth=2;strokeColor=#3700CC;fontColor=#ffffff;" parent="87" vertex="1">
                    <mxGeometry y="273.9130434782608" width="78.57" height="30.434782608695645" as="geometry"/>
                </mxCell>
                <mxCell id="113" value="" style="group" parent="1" vertex="1" connectable="0">
                    <mxGeometry x="220" y="650" width="80" height="33.48468085106384" as="geometry"/>
                </mxCell>
                <mxCell id="114" value="&lt;span style=&quot;font-size: 11px;&quot;&gt;&lt;b style=&quot;font-size: 11px;&quot;&gt;If_queue&lt;/b&gt;&lt;/span&gt;" style="rounded=1;whiteSpace=wrap;html=1;fillColor=#60a917;strokeWidth=2;strokeColor=#2D7600;fontColor=#ffffff;fontSize=11;" parent="113" vertex="1">
                    <mxGeometry width="80" height="15.744680851063828" as="geometry"/>
                </mxCell>
                <mxCell id="115" value="&lt;span style=&quot;font-size: 11px&quot;&gt;&lt;b style=&quot;font-size: 11px&quot;&gt;w_queue&lt;/b&gt;&lt;/span&gt;" style="rounded=1;whiteSpace=wrap;html=1;fillColor=#d80073;strokeWidth=2;strokeColor=#A50040;fontColor=#ffffff;fontSize=11;" parent="113" vertex="1">
                    <mxGeometry y="17.74000000000001" width="80" height="15.744680851063828" as="geometry"/>
                </mxCell>
                <mxCell id="116" value="" style="group" parent="1" vertex="1" connectable="0">
                    <mxGeometry x="220" y="698" width="80" height="33.48468085106384" as="geometry"/>
                </mxCell>
                <mxCell id="117" value="&lt;span style=&quot;font-size: 11px;&quot;&gt;&lt;b style=&quot;font-size: 11px;&quot;&gt;If_queue&lt;/b&gt;&lt;/span&gt;" style="rounded=1;whiteSpace=wrap;html=1;fillColor=#60a917;strokeWidth=2;strokeColor=#2D7600;fontColor=#ffffff;fontSize=11;" parent="116" vertex="1">
                    <mxGeometry width="80" height="15.744680851063828" as="geometry"/>
                </mxCell>
                <mxCell id="118" value="&lt;span style=&quot;font-size: 11px&quot;&gt;&lt;b style=&quot;font-size: 11px&quot;&gt;w_queue&lt;/b&gt;&lt;/span&gt;" style="rounded=1;whiteSpace=wrap;html=1;fillColor=#d80073;strokeWidth=2;strokeColor=#A50040;fontColor=#ffffff;fontSize=11;" parent="116" vertex="1">
                    <mxGeometry y="17.74000000000001" width="80" height="15.744680851063828" as="geometry"/>
                </mxCell>
                <mxCell id="119" value="" style="group" parent="1" vertex="1" connectable="0">
                    <mxGeometry x="220" y="743" width="80" height="33.48468085106384" as="geometry"/>
                </mxCell>
                <mxCell id="120" value="&lt;span style=&quot;font-size: 11px;&quot;&gt;&lt;b style=&quot;font-size: 11px;&quot;&gt;If_queue&lt;/b&gt;&lt;/span&gt;" style="rounded=1;whiteSpace=wrap;html=1;fillColor=#60a917;strokeWidth=2;strokeColor=#2D7600;fontColor=#ffffff;fontSize=11;" parent="119" vertex="1">
                    <mxGeometry width="80" height="15.744680851063828" as="geometry"/>
                </mxCell>
                <mxCell id="121" value="&lt;span style=&quot;font-size: 11px&quot;&gt;&lt;b style=&quot;font-size: 11px&quot;&gt;w_queue&lt;/b&gt;&lt;/span&gt;" style="rounded=1;whiteSpace=wrap;html=1;fillColor=#d80073;strokeWidth=2;strokeColor=#A50040;fontColor=#ffffff;fontSize=11;" parent="119" vertex="1">
                    <mxGeometry y="17.74000000000001" width="80" height="15.744680851063828" as="geometry"/>
                </mxCell>
                <mxCell id="122" value="" style="group" parent="1" vertex="1" connectable="0">
                    <mxGeometry x="220" y="788" width="80" height="33.48468085106384" as="geometry"/>
                </mxCell>
                <mxCell id="123" value="&lt;span style=&quot;font-size: 11px;&quot;&gt;&lt;b style=&quot;font-size: 11px;&quot;&gt;If_queue&lt;/b&gt;&lt;/span&gt;" style="rounded=1;whiteSpace=wrap;html=1;fillColor=#60a917;strokeWidth=2;strokeColor=#2D7600;fontColor=#ffffff;fontSize=11;" parent="122" vertex="1">
                    <mxGeometry width="80" height="15.744680851063828" as="geometry"/>
                </mxCell>
                <mxCell id="124" value="&lt;span style=&quot;font-size: 11px&quot;&gt;&lt;b style=&quot;font-size: 11px&quot;&gt;w_queue&lt;/b&gt;&lt;/span&gt;" style="rounded=1;whiteSpace=wrap;html=1;fillColor=#d80073;strokeWidth=2;strokeColor=#A50040;fontColor=#ffffff;fontSize=11;" parent="122" vertex="1">
                    <mxGeometry y="17.74000000000001" width="80" height="15.744680851063828" as="geometry"/>
                </mxCell>
                <mxCell id="125" style="edgeStyle=none;rounded=1;html=1;exitX=1;exitY=0.5;exitDx=0;exitDy=0;entryX=0;entryY=0.25;entryDx=0;entryDy=0;fontSize=11;fontColor=#000000;strokeColor=#000000;strokeWidth=1;" parent="1" source="56" target="41" edge="1">
                    <mxGeometry relative="1" as="geometry">
                        <Array as="points">
                            <mxPoint x="300" y="478"/>
                        </Array>
                    </mxGeometry>
                </mxCell>
                <mxCell id="127" style="edgeStyle=none;rounded=1;html=1;exitX=1;exitY=0.75;exitDx=0;exitDy=0;entryX=0.008;entryY=0.679;entryDx=0;entryDy=0;entryPerimeter=0;fontSize=11;fontColor=#000000;strokeColor=#000000;strokeWidth=1;" parent="1" source="76" target="41" edge="1">
                    <mxGeometry relative="1" as="geometry">
                        <Array as="points">
                            <mxPoint x="300" y="491"/>
                        </Array>
                    </mxGeometry>
                </mxCell>
                <mxCell id="128" style="edgeStyle=none;rounded=1;html=1;exitX=1;exitY=0.5;exitDx=0;exitDy=0;entryX=0;entryY=0.25;entryDx=0;entryDy=0;fontSize=11;fontColor=#000000;strokeColor=#000000;strokeWidth=1;" parent="1" edge="1">
                    <mxGeometry relative="1" as="geometry">
                        <mxPoint x="300" y="519.9023404255319" as="sourcePoint"/>
                        <mxPoint x="320" y="523.6386956521739" as="targetPoint"/>
                        <Array as="points">
                            <mxPoint x="300" y="524.03"/>
                        </Array>
                    </mxGeometry>
                </mxCell>
                <mxCell id="129" style="edgeStyle=none;rounded=1;html=1;exitX=1;exitY=0.75;exitDx=0;exitDy=0;entryX=0.008;entryY=0.679;entryDx=0;entryDy=0;entryPerimeter=0;fontSize=11;fontColor=#000000;strokeColor=#000000;strokeWidth=1;" parent="1" edge="1">
                    <mxGeometry relative="1" as="geometry">
                        <mxPoint x="300" y="541.5785106382978" as="sourcePoint"/>
                        <mxPoint x="320.62856" y="536.6952173913043" as="targetPoint"/>
                        <Array as="points">
                            <mxPoint x="300" y="537.03"/>
                        </Array>
                    </mxGeometry>
                </mxCell>
                <mxCell id="138" style="edgeStyle=none;rounded=1;html=1;exitX=1;exitY=0.5;exitDx=0;exitDy=0;entryX=0;entryY=0.25;entryDx=0;entryDy=0;fontSize=11;fontColor=#000000;strokeColor=#000000;strokeWidth=1;" parent="1" edge="1">
                    <mxGeometry relative="1" as="geometry">
                        <mxPoint x="300" y="565.902340425532" as="sourcePoint"/>
                        <mxPoint x="320" y="569.638695652174" as="targetPoint"/>
                        <Array as="points">
                            <mxPoint x="300" y="570.03"/>
                        </Array>
                    </mxGeometry>
                </mxCell>
                <mxCell id="139" style="edgeStyle=none;rounded=1;html=1;exitX=1;exitY=0.75;exitDx=0;exitDy=0;entryX=0.008;entryY=0.679;entryDx=0;entryDy=0;entryPerimeter=0;fontSize=11;fontColor=#000000;strokeColor=#000000;strokeWidth=1;" parent="1" edge="1">
                    <mxGeometry relative="1" as="geometry">
                        <mxPoint x="300" y="587.5785106382979" as="sourcePoint"/>
                        <mxPoint x="320.62856" y="582.6952173913044" as="targetPoint"/>
                        <Array as="points">
                            <mxPoint x="300" y="583.03"/>
                        </Array>
                    </mxGeometry>
                </mxCell>
                <mxCell id="140" style="edgeStyle=none;rounded=1;html=1;exitX=1;exitY=0.5;exitDx=0;exitDy=0;entryX=0;entryY=0.25;entryDx=0;entryDy=0;fontSize=11;fontColor=#000000;strokeColor=#000000;strokeWidth=1;" parent="1" edge="1">
                    <mxGeometry relative="1" as="geometry">
                        <mxPoint x="300" y="611.872340425532" as="sourcePoint"/>
                        <mxPoint x="320" y="615.608695652174" as="targetPoint"/>
                        <Array as="points">
                            <mxPoint x="300" y="616"/>
                        </Array>
                    </mxGeometry>
                </mxCell>
                <mxCell id="141" style="edgeStyle=none;rounded=1;html=1;exitX=1;exitY=0.75;exitDx=0;exitDy=0;entryX=0.008;entryY=0.679;entryDx=0;entryDy=0;entryPerimeter=0;fontSize=11;fontColor=#000000;strokeColor=#000000;strokeWidth=1;" parent="1" edge="1">
                    <mxGeometry relative="1" as="geometry">
                        <mxPoint x="300" y="633.5485106382979" as="sourcePoint"/>
                        <mxPoint x="320.62856" y="628.6652173913044" as="targetPoint"/>
                        <Array as="points">
                            <mxPoint x="300" y="629"/>
                        </Array>
                    </mxGeometry>
                </mxCell>
                <mxCell id="142" style="edgeStyle=none;rounded=1;html=1;exitX=1;exitY=0.5;exitDx=0;exitDy=0;entryX=0;entryY=0.25;entryDx=0;entryDy=0;fontSize=11;fontColor=#000000;strokeColor=#000000;strokeWidth=1;" parent="1" edge="1">
                    <mxGeometry relative="1" as="geometry">
                        <mxPoint x="300" y="657.0023404255319" as="sourcePoint"/>
                        <mxPoint x="320" y="660.7386956521739" as="targetPoint"/>
                        <Array as="points">
                            <mxPoint x="300" y="661.13"/>
                        </Array>
                    </mxGeometry>
                </mxCell>
                <mxCell id="143" style="edgeStyle=none;rounded=1;html=1;exitX=1;exitY=0.75;exitDx=0;exitDy=0;entryX=0.008;entryY=0.679;entryDx=0;entryDy=0;entryPerimeter=0;fontSize=11;fontColor=#000000;strokeColor=#000000;strokeWidth=1;" parent="1" edge="1">
                    <mxGeometry relative="1" as="geometry">
                        <mxPoint x="300" y="678.6785106382979" as="sourcePoint"/>
                        <mxPoint x="320.62856" y="673.7952173913044" as="targetPoint"/>
                        <Array as="points">
                            <mxPoint x="300" y="674.13"/>
                        </Array>
                    </mxGeometry>
                </mxCell>
                <mxCell id="144" style="edgeStyle=none;rounded=1;html=1;exitX=1;exitY=0.5;exitDx=0;exitDy=0;entryX=0;entryY=0.25;entryDx=0;entryDy=0;fontSize=11;fontColor=#000000;strokeColor=#000000;strokeWidth=1;" parent="1" edge="1">
                    <mxGeometry relative="1" as="geometry">
                        <mxPoint x="300" y="703.0323404255319" as="sourcePoint"/>
                        <mxPoint x="320" y="706.7686956521738" as="targetPoint"/>
                        <Array as="points">
                            <mxPoint x="300" y="707.16"/>
                        </Array>
                    </mxGeometry>
                </mxCell>
                <mxCell id="145" style="edgeStyle=none;rounded=1;html=1;exitX=1;exitY=0.75;exitDx=0;exitDy=0;entryX=0.008;entryY=0.679;entryDx=0;entryDy=0;entryPerimeter=0;fontSize=11;fontColor=#000000;strokeColor=#000000;strokeWidth=1;" parent="1" edge="1">
                    <mxGeometry relative="1" as="geometry">
                        <mxPoint x="300" y="724.7085106382979" as="sourcePoint"/>
                        <mxPoint x="320.62856" y="719.8252173913042" as="targetPoint"/>
                        <Array as="points">
                            <mxPoint x="300" y="720.16"/>
                        </Array>
                    </mxGeometry>
                </mxCell>
                <mxCell id="146" style="edgeStyle=none;rounded=1;html=1;exitX=1;exitY=0.5;exitDx=0;exitDy=0;entryX=0;entryY=0.25;entryDx=0;entryDy=0;fontSize=11;fontColor=#000000;strokeColor=#000000;strokeWidth=1;" parent="1" edge="1">
                    <mxGeometry relative="1" as="geometry">
                        <mxPoint x="300" y="749.032340425532" as="sourcePoint"/>
                        <mxPoint x="320" y="752.768695652174" as="targetPoint"/>
                        <Array as="points">
                            <mxPoint x="300" y="753.16"/>
                        </Array>
                    </mxGeometry>
                </mxCell>
                <mxCell id="147" style="edgeStyle=none;rounded=1;html=1;exitX=1;exitY=0.75;exitDx=0;exitDy=0;entryX=0.008;entryY=0.679;entryDx=0;entryDy=0;entryPerimeter=0;fontSize=11;fontColor=#000000;strokeColor=#000000;strokeWidth=1;" parent="1" edge="1">
                    <mxGeometry relative="1" as="geometry">
                        <mxPoint x="300" y="770.7085106382979" as="sourcePoint"/>
                        <mxPoint x="320.62856" y="765.8252173913044" as="targetPoint"/>
                        <Array as="points">
                            <mxPoint x="300" y="766.16"/>
                        </Array>
                    </mxGeometry>
                </mxCell>
                <mxCell id="148" style="edgeStyle=none;rounded=1;html=1;exitX=1;exitY=0.5;exitDx=0;exitDy=0;entryX=0;entryY=0.25;entryDx=0;entryDy=0;fontSize=11;fontColor=#000000;strokeColor=#000000;strokeWidth=1;" parent="1" edge="1">
                    <mxGeometry relative="1" as="geometry">
                        <mxPoint x="300" y="795.0023404255319" as="sourcePoint"/>
                        <mxPoint x="320" y="798.738695652174" as="targetPoint"/>
                        <Array as="points">
                            <mxPoint x="300" y="799.13"/>
                        </Array>
                    </mxGeometry>
                </mxCell>
                <mxCell id="149" style="edgeStyle=none;rounded=1;html=1;exitX=1;exitY=0.75;exitDx=0;exitDy=0;entryX=0.008;entryY=0.679;entryDx=0;entryDy=0;entryPerimeter=0;fontSize=11;fontColor=#000000;strokeColor=#000000;strokeWidth=1;" parent="1" edge="1">
                    <mxGeometry relative="1" as="geometry">
                        <mxPoint x="300" y="816.678510638298" as="sourcePoint"/>
                        <mxPoint x="320.62856" y="811.7952173913044" as="targetPoint"/>
                        <Array as="points">
                            <mxPoint x="300" y="812.13"/>
                        </Array>
                    </mxGeometry>
                </mxCell>
                <mxCell id="151" value="" style="group;strokeWidth=3;" parent="1" vertex="1" connectable="0">
                    <mxGeometry x="780" y="250" width="60" height="60" as="geometry"/>
                </mxCell>
                <mxCell id="152" value="" style="ellipse;whiteSpace=wrap;html=1;aspect=fixed;strokeColor=#000000;fillColor=none;strokeWidth=3;" parent="151" vertex="1">
                    <mxGeometry width="60" height="60" as="geometry"/>
                </mxCell>
                <mxCell id="153" value="" style="endArrow=none;html=1;exitX=0;exitY=1;exitDx=0;exitDy=0;strokeColor=#000000;strokeWidth=5;" parent="151" edge="1">
                    <mxGeometry width="50" height="50" relative="1" as="geometry">
                        <mxPoint x="13.786796564403346" y="46.213203435596654" as="sourcePoint"/>
                        <mxPoint x="45" y="15" as="targetPoint"/>
                    </mxGeometry>
                </mxCell>
                <mxCell id="154" value="" style="endArrow=none;html=1;exitX=1;exitY=1;exitDx=0;exitDy=0;strokeColor=#000000;strokeWidth=5;" parent="151" edge="1">
                    <mxGeometry width="50" height="50" relative="1" as="geometry">
                        <mxPoint x="46.213203435596654" y="46.213203435596654" as="sourcePoint"/>
                        <mxPoint x="15" y="15" as="targetPoint"/>
                    </mxGeometry>
                </mxCell>
                <mxCell id="155" value="" style="group;strokeWidth=3;rotation=90;direction=south;" parent="1" vertex="1" connectable="0">
                    <mxGeometry x="920" y="250" width="60" height="60" as="geometry"/>
                </mxCell>
                <mxCell id="156" value="" style="group" parent="155" vertex="1" connectable="0">
                    <mxGeometry x="-8.571428571428573" y="-3.552713678800501e-15" width="60" height="60" as="geometry"/>
                </mxCell>
                <mxCell id="157" value="" style="ellipse;whiteSpace=wrap;html=1;aspect=fixed;strokeColor=#000000;fillColor=none;strokeWidth=3;rotation=-90;" parent="156" vertex="1">
                    <mxGeometry x="1.7763568394002505e-15" y="3.552713678800501e-15" width="60" height="60" as="geometry"/>
                </mxCell>
                <mxCell id="158" value="" style="endArrow=none;html=1;strokeColor=#000000;strokeWidth=5;rounded=1;" parent="156" edge="1">
                    <mxGeometry width="50" height="50" relative="1" as="geometry">
                        <mxPoint x="49.57142857142857" y="30.000000000000004" as="sourcePoint"/>
                        <mxPoint x="9.571428571428573" y="30.000000000000004" as="targetPoint"/>
                    </mxGeometry>
                </mxCell>
                <mxCell id="159" value="" style="endArrow=none;html=1;strokeColor=#000000;strokeWidth=5;rounded=1;" parent="156" edge="1">
                    <mxGeometry width="50" height="50" relative="1" as="geometry">
                        <mxPoint x="29.571428571428573" y="10.000000000000004" as="sourcePoint"/>
                        <mxPoint x="29.571428571428573" y="50" as="targetPoint"/>
                    </mxGeometry>
                </mxCell>
                <mxCell id="160" value="" style="group" parent="1" vertex="1" connectable="0">
                    <mxGeometry x="851.4300000000001" y="320" width="60" height="50" as="geometry"/>
                </mxCell>
                <mxCell id="161" value="" style="group" parent="160" vertex="1" connectable="0">
                    <mxGeometry width="54" height="50" as="geometry"/>
                </mxCell>
                <mxCell id="162" value="" style="rounded=1;whiteSpace=wrap;html=1;fillColor=none;strokeColor=#000000;strokeWidth=3;" parent="161" vertex="1">
                    <mxGeometry width="54" height="50" as="geometry"/>
                </mxCell>
                <mxCell id="163" value="" style="triangle;whiteSpace=wrap;html=1;strokeColor=#000000;strokeWidth=3;fillColor=none;" parent="161" vertex="1">
                    <mxGeometry y="25" width="12" height="16.67" as="geometry"/>
                </mxCell>
                <mxCell id="164" value="&lt;font color=&quot;#000000&quot; style=&quot;font-size: 16px;&quot;&gt;D&lt;/font&gt;" style="text;html=1;strokeColor=none;fillColor=none;align=center;verticalAlign=middle;whiteSpace=wrap;rounded=0;strokeWidth=1;fontSize=16;fontStyle=1" parent="161" vertex="1">
                    <mxGeometry x="3.75" width="15" height="25" as="geometry"/>
                </mxCell>
                <mxCell id="165" value="&lt;font color=&quot;#000000&quot; style=&quot;font-size: 16px&quot;&gt;Q&lt;/font&gt;" style="text;html=1;strokeColor=none;fillColor=none;align=center;verticalAlign=middle;whiteSpace=wrap;rounded=0;strokeWidth=1;fontSize=16;fontStyle=1" parent="161" vertex="1">
                    <mxGeometry x="35.25" width="15" height="25" as="geometry"/>
                </mxCell>
                <mxCell id="166" value="" style="endArrow=classic;html=1;fontSize=16;fontColor=#000000;strokeColor=#005700;strokeWidth=3;entryX=0.5;entryY=0;entryDx=0;entryDy=0;exitX=1;exitY=0.5;exitDx=0;exitDy=0;fillColor=#008a00;" parent="1" source="152" target="157" edge="1">
                    <mxGeometry width="50" height="50" relative="1" as="geometry">
                        <mxPoint x="680" y="300" as="sourcePoint"/>
                        <mxPoint x="730" y="250" as="targetPoint"/>
                    </mxGeometry>
                </mxCell>
                <mxCell id="167" value="" style="endArrow=classic;html=1;fontSize=16;fontColor=#000000;strokeColor=#005700;strokeWidth=3;entryX=0;entryY=0.5;entryDx=0;entryDy=0;exitX=1;exitY=0.5;exitDx=0;exitDy=0;fillColor=#008a00;" parent="1" source="165" target="157" edge="1">
                    <mxGeometry width="50" height="50" relative="1" as="geometry">
                        <mxPoint x="850" y="370" as="sourcePoint"/>
                        <mxPoint x="921.4285714285716" y="370" as="targetPoint"/>
                        <Array as="points">
                            <mxPoint x="941" y="333"/>
                        </Array>
                    </mxGeometry>
                </mxCell>
                <mxCell id="168" value="" style="endArrow=classic;html=1;fontSize=16;fontColor=#000000;strokeColor=#005700;strokeWidth=3;entryX=0;entryY=0.25;entryDx=0;entryDy=0;exitX=0.5;exitY=1;exitDx=0;exitDy=0;fillColor=#008a00;" parent="1" source="157" target="162" edge="1">
                    <mxGeometry width="50" height="50" relative="1" as="geometry">
                        <mxPoint x="990" y="279.58" as="sourcePoint"/>
                        <mxPoint x="1061.4285714285716" y="279.58" as="targetPoint"/>
                        <Array as="points">
                            <mxPoint x="1000" y="280"/>
                            <mxPoint x="1000" y="380"/>
                            <mxPoint x="830" y="380"/>
                            <mxPoint x="830" y="333"/>
                        </Array>
                    </mxGeometry>
                </mxCell>
                <mxCell id="169" value="" style="endArrow=classic;html=1;fontSize=16;fontColor=#000000;strokeColor=#005700;strokeWidth=3;entryX=0.5;entryY=0;entryDx=0;entryDy=0;fillColor=#008a00;" parent="1" edge="1">
                    <mxGeometry width="50" height="50" relative="1" as="geometry">
                        <mxPoint x="740" y="270" as="sourcePoint"/>
                        <mxPoint x="781.4285714285716" y="270" as="targetPoint"/>
                    </mxGeometry>
                </mxCell>
                <mxCell id="170" value="" style="endArrow=classic;html=1;fontSize=16;fontColor=#000000;strokeColor=#005700;strokeWidth=3;entryX=0.5;entryY=0;entryDx=0;entryDy=0;fillColor=#008a00;" parent="1" edge="1">
                    <mxGeometry width="50" height="50" relative="1" as="geometry">
                        <mxPoint x="740" y="290" as="sourcePoint"/>
                        <mxPoint x="781.4285714285716" y="290" as="targetPoint"/>
                    </mxGeometry>
                </mxCell>
                <mxCell id="172" value="" style="endArrow=classic;html=1;fontSize=16;fontColor=#000000;strokeColor=#005700;strokeWidth=3;fillColor=#008a00;" parent="1" edge="1">
                    <mxGeometry width="50" height="50" relative="1" as="geometry">
                        <mxPoint x="988.5699999999999" y="279.9200000000001" as="sourcePoint"/>
                        <mxPoint x="1030" y="280" as="targetPoint"/>
                    </mxGeometry>
                </mxCell>
                <mxCell id="173" value="&lt;font style=&quot;font-size: 14px;&quot;&gt;SAR&lt;/font&gt;" style="rounded=1;whiteSpace=wrap;html=1;fillColor=none;strokeColor=#000000;strokeWidth=3;fontColor=#000000;fontSize=14;fontStyle=1" parent="1" vertex="1">
                    <mxGeometry x="1030" y="270.5" width="50" height="19" as="geometry"/>
                </mxCell>
                <mxCell id="179" value="Act Fun Table" style="swimlane;fontStyle=0;childLayout=stackLayout;horizontal=1;startSize=20;horizontalStack=0;resizeParent=1;resizeParentMax=0;resizeLast=0;collapsible=1;marginBottom=0;fontSize=14;fontColor=#000000;strokeColor=#000000;strokeWidth=3;fillColor=none;" parent="1" vertex="1">
                    <mxGeometry x="650.56" y="528.4300000000001" width="140" height="110" as="geometry">
                        <mxRectangle x="750" y="427.74" width="120" height="20" as="alternateBounds"/>
                    </mxGeometry>
                </mxCell>
                <mxCell id="187" value="" style="endArrow=none;html=1;fontSize=14;fontColor=#000000;strokeColor=#000000;exitX=-0.004;exitY=0.861;exitDx=0;exitDy=0;exitPerimeter=0;entryX=0.314;entryY=1.019;entryDx=0;entryDy=0;entryPerimeter=0;" parent="179" edge="1">
                    <mxGeometry width="50" height="50" relative="1" as="geometry">
                        <mxPoint x="90.03999999999996" y="19.99999999999983" as="sourcePoint"/>
                        <mxPoint x="90" y="109.41000000000008" as="targetPoint"/>
                    </mxGeometry>
                </mxCell>
                <mxCell id="180" value="   X          A          B" style="text;strokeColor=none;fillColor=none;align=left;verticalAlign=middle;spacingLeft=4;spacingRight=4;overflow=hidden;points=[[0,0.5],[1,0.5]];portConstraint=eastwest;rotatable=0;fontSize=14;fontColor=#000000;" parent="179" vertex="1">
                    <mxGeometry y="20" width="140" height="30" as="geometry"/>
                </mxCell>
                <mxCell id="185" value="" style="endArrow=none;html=1;fontSize=14;fontColor=#000000;strokeColor=#000000;exitX=-0.004;exitY=0.861;exitDx=0;exitDy=0;exitPerimeter=0;entryX=0.314;entryY=1.019;entryDx=0;entryDy=0;entryPerimeter=0;" parent="179" target="182" edge="1">
                    <mxGeometry width="50" height="50" relative="1" as="geometry">
                        <mxPoint x="44" y="21.15999999999991" as="sourcePoint"/>
                        <mxPoint x="44" y="88.83000000000004" as="targetPoint"/>
                    </mxGeometry>
                </mxCell>
                <mxCell id="181" value="0x10     0x02   0xA4" style="text;strokeColor=none;fillColor=none;align=left;verticalAlign=middle;spacingLeft=4;spacingRight=4;overflow=hidden;points=[[0,0.5],[1,0.5]];portConstraint=eastwest;rotatable=0;fontSize=14;fontColor=#000000;" parent="179" vertex="1">
                    <mxGeometry y="50" width="140" height="30" as="geometry"/>
                </mxCell>
                <mxCell id="184" value="" style="endArrow=none;html=1;fontSize=14;fontColor=#000000;strokeColor=#000000;exitX=-0.004;exitY=0.861;exitDx=0;exitDy=0;exitPerimeter=0;entryX=1.004;entryY=0.87;entryDx=0;entryDy=0;entryPerimeter=0;" parent="179" edge="1">
                    <mxGeometry width="50" height="50" relative="1" as="geometry">
                        <mxPoint y="79.16999999999996" as="sourcePoint"/>
                        <mxPoint x="141.1199999999999" y="79.44000000000005" as="targetPoint"/>
                    </mxGeometry>
                </mxCell>
                <mxCell id="182" value="......" style="text;strokeColor=none;fillColor=none;align=left;verticalAlign=middle;spacingLeft=4;spacingRight=4;overflow=hidden;points=[[0,0.5],[1,0.5]];portConstraint=eastwest;rotatable=0;fontSize=14;fontColor=#000000;fontStyle=1" parent="179" vertex="1">
                    <mxGeometry y="80" width="140" height="30" as="geometry"/>
                </mxCell>
                <mxCell id="183" value="" style="endArrow=none;html=1;fontSize=14;fontColor=#000000;strokeColor=#000000;exitX=-0.004;exitY=0.861;exitDx=0;exitDy=0;exitPerimeter=0;entryX=1.004;entryY=0.87;entryDx=0;entryDy=0;entryPerimeter=0;" parent="179" source="180" target="180" edge="1">
                    <mxGeometry width="50" height="50" relative="1" as="geometry">
                        <mxPoint x="210" y="30" as="sourcePoint"/>
                        <mxPoint x="260" as="targetPoint"/>
                    </mxGeometry>
                </mxCell>
                <mxCell id="188" value="BN Paras" style="swimlane;fontStyle=0;childLayout=stackLayout;horizontal=1;startSize=20;horizontalStack=0;resizeParent=1;resizeParentMax=0;resizeLast=0;collapsible=1;marginBottom=0;fontSize=14;fontColor=#000000;strokeColor=#000000;strokeWidth=3;fillColor=none;" parent="1" vertex="1">
                    <mxGeometry x="920" y="427.74" width="140" height="80" as="geometry">
                        <mxRectangle x="920" y="427.74" width="90" height="20" as="alternateBounds"/>
                    </mxGeometry>
                </mxCell>
                <mxCell id="190" value="IsBN      A          B" style="text;strokeColor=none;fillColor=none;align=left;verticalAlign=middle;spacingLeft=4;spacingRight=4;overflow=hidden;points=[[0,0.5],[1,0.5]];portConstraint=eastwest;rotatable=0;fontSize=14;fontColor=#000000;" parent="188" vertex="1">
                    <mxGeometry y="20" width="140" height="30" as="geometry"/>
                </mxCell>
                <mxCell id="192" value=" 0/1     0x12   0x24" style="text;strokeColor=none;fillColor=none;align=left;verticalAlign=middle;spacingLeft=4;spacingRight=4;overflow=hidden;points=[[0,0.5],[1,0.5]];portConstraint=eastwest;rotatable=0;fontSize=14;fontColor=#000000;" parent="188" vertex="1">
                    <mxGeometry y="50" width="140" height="30" as="geometry"/>
                </mxCell>
                <mxCell id="193" value="" style="endArrow=none;html=1;fontSize=14;fontColor=#000000;strokeColor=#000000;exitX=-0.004;exitY=0.861;exitDx=0;exitDy=0;exitPerimeter=0;entryX=1.004;entryY=0.87;entryDx=0;entryDy=0;entryPerimeter=0;" parent="188" edge="1">
                    <mxGeometry width="50" height="50" relative="1" as="geometry">
                        <mxPoint y="79.16999999999996" as="sourcePoint"/>
                        <mxPoint x="141.1199999999999" y="79.44000000000005" as="targetPoint"/>
                    </mxGeometry>
                </mxCell>
                <mxCell id="195" value="" style="endArrow=none;html=1;fontSize=14;fontColor=#000000;strokeColor=#000000;exitX=-0.004;exitY=0.861;exitDx=0;exitDy=0;exitPerimeter=0;entryX=1.004;entryY=0.87;entryDx=0;entryDy=0;entryPerimeter=0;" parent="188" source="190" target="190" edge="1">
                    <mxGeometry width="50" height="50" relative="1" as="geometry">
                        <mxPoint x="210" y="30" as="sourcePoint"/>
                        <mxPoint x="260" as="targetPoint"/>
                    </mxGeometry>
                </mxCell>
                <mxCell id="199" value="" style="group;strokeWidth=3;fontSize=14;fontColor=#000000;fillColor=none;" parent="1" vertex="1" connectable="0">
                    <mxGeometry x="1410" y="310" width="60" height="60" as="geometry"/>
                </mxCell>
                <mxCell id="200" value="" style="ellipse;whiteSpace=wrap;html=1;aspect=fixed;strokeColor=#000000;fillColor=none;strokeWidth=3;fontSize=14;fontColor=#000000;" parent="199" vertex="1">
                    <mxGeometry width="60" height="60" as="geometry"/>
                </mxCell>
                <mxCell id="201" value="" style="endArrow=none;html=1;exitX=0;exitY=1;exitDx=0;exitDy=0;strokeColor=#000000;strokeWidth=5;fontSize=14;fontColor=#000000;" parent="199" edge="1">
                    <mxGeometry width="50" height="50" relative="1" as="geometry">
                        <mxPoint x="13.786796564403346" y="46.213203435596654" as="sourcePoint"/>
                        <mxPoint x="45" y="15" as="targetPoint"/>
                    </mxGeometry>
                </mxCell>
                <mxCell id="202" value="" style="endArrow=none;html=1;exitX=1;exitY=1;exitDx=0;exitDy=0;strokeColor=#000000;strokeWidth=5;fontSize=14;fontColor=#000000;" parent="199" edge="1">
                    <mxGeometry width="50" height="50" relative="1" as="geometry">
                        <mxPoint x="46.213203435596654" y="46.213203435596654" as="sourcePoint"/>
                        <mxPoint x="15" y="15" as="targetPoint"/>
                    </mxGeometry>
                </mxCell>
                <mxCell id="203" value="" style="shadow=0;dashed=0;align=center;html=1;strokeWidth=2;shape=mxgraph.rtl.abstract.entity;container=1;collapsible=0;kind=mux;drawPins=0;left=4;right=1;bottom=0;fontSize=14;fontColor=#000000;fillColor=none;strokeColor=#000000;rotation=90;" parent="1" vertex="1">
                    <mxGeometry x="1480" y="189.5" width="30" height="100" as="geometry"/>
                </mxCell>
                <mxCell id="204" value="" style="endArrow=classic;html=1;fontSize=16;fontColor=#000000;strokeColor=#005700;strokeWidth=3;entryX=0.5;entryY=0;entryDx=0;entryDy=0;fillColor=#008a00;" parent="1" edge="1">
                    <mxGeometry width="50" height="50" relative="1" as="geometry">
                        <mxPoint x="1350" y="288.67" as="sourcePoint"/>
                        <mxPoint x="1391.4285714285716" y="288.67" as="targetPoint"/>
                    </mxGeometry>
                </mxCell>
                <mxCell id="205" value="DTCM" style="rounded=1;whiteSpace=wrap;html=1;fillColor=#e3c800;strokeWidth=2;strokeColor=#B09500;fontColor=#000000;arcSize=13;" parent="1" vertex="1">
                    <mxGeometry x="-190" y="475" width="78.57" height="84" as="geometry"/>
                </mxCell>
                <mxCell id="209" value="" style="edgeStyle=none;html=1;" parent="1" source="45" edge="1">
                    <mxGeometry relative="1" as="geometry">
                        <mxPoint x="457.855" y="667.8260869565215" as="targetPoint"/>
                    </mxGeometry>
                </mxCell>
                <mxCell id="210" value="" style="shape=cube;whiteSpace=wrap;html=1;boundedLbl=1;backgroundOutline=1;darkOpacity=0.05;darkOpacity2=0.1;size=21;" parent="1" vertex="1">
                    <mxGeometry x="-470" y="559" width="120" height="80" as="geometry"/>
                </mxCell>
                <mxCell id="211" value="" style="whiteSpace=wrap;html=1;aspect=fixed;fillColor=#FFFFFF;strokeColor=#000000;" parent="1" vertex="1">
                    <mxGeometry x="-460" y="759.9999999999999" width="80" height="80" as="geometry"/>
                </mxCell>
                <mxCell id="212" value="" style="whiteSpace=wrap;html=1;aspect=fixed;fillColor=#FFFFFF;strokeColor=#000000;" parent="1" vertex="1">
                    <mxGeometry x="-450" y="769.9999999999999" width="80" height="80" as="geometry"/>
                </mxCell>
                <mxCell id="213" value="" style="whiteSpace=wrap;html=1;aspect=fixed;fillColor=#FFFFFF;strokeColor=#000000;" parent="1" vertex="1">
                    <mxGeometry x="-440" y="779.9999999999999" width="80" height="80" as="geometry"/>
                </mxCell>
                <mxCell id="214" value="" style="whiteSpace=wrap;html=1;aspect=fixed;fillColor=#FFFFFF;strokeColor=#000000;" parent="1" vertex="1">
                    <mxGeometry x="-430" y="789.9999999999999" width="80" height="80" as="geometry"/>
                </mxCell>
                <mxCell id="215" value="&lt;b&gt;&lt;font style=&quot;font-size: 15px&quot;&gt;MAC&lt;/font&gt;&lt;/b&gt;" style="rounded=1;whiteSpace=wrap;html=1;fillColor=#6a00ff;strokeWidth=2;strokeColor=#3700CC;fontColor=#ffffff;" parent="1" vertex="1">
                    <mxGeometry x="231.43" y="999.7899999999998" width="78.57" height="25.95744680851064" as="geometry"/>
                </mxCell>
                <mxCell id="220" value="&lt;b&gt;&lt;font style=&quot;font-size: 15px&quot;&gt;MAC&lt;/font&gt;&lt;/b&gt;" style="rounded=1;whiteSpace=wrap;html=1;fillColor=#6a00ff;strokeWidth=2;strokeColor=#3700CC;fontColor=#ffffff;" parent="1" vertex="1">
                    <mxGeometry x="231.43" y="944.8899999999999" width="78.57" height="25.95744680851064" as="geometry"/>
                </mxCell>
                <mxCell id="221" value="&lt;b&gt;&lt;font style=&quot;font-size: 15px&quot;&gt;MAC&lt;/font&gt;&lt;/b&gt;" style="rounded=1;whiteSpace=wrap;html=1;fillColor=#6a00ff;strokeWidth=2;strokeColor=#3700CC;fontColor=#ffffff;" parent="1" vertex="1">
                    <mxGeometry x="231.43" y="1119.58" width="78.57" height="25.95744680851064" as="geometry"/>
                </mxCell>
                <mxCell id="222" value="&lt;b&gt;&lt;font style=&quot;font-size: 15px&quot;&gt;MAC&lt;/font&gt;&lt;/b&gt;" style="rounded=1;whiteSpace=wrap;html=1;fillColor=#6a00ff;strokeWidth=2;strokeColor=#3700CC;fontColor=#ffffff;" parent="1" vertex="1">
                    <mxGeometry x="231.43" y="1064.6799999999998" width="78.57" height="25.95744680851064" as="geometry"/>
                </mxCell>
                <mxCell id="223" value="&lt;span style=&quot;font-size: 11px;&quot;&gt;&lt;b style=&quot;font-size: 11px;&quot;&gt;If_queue&lt;/b&gt;&lt;/span&gt;" style="rounded=1;whiteSpace=wrap;html=1;fillColor=#60a917;strokeWidth=2;strokeColor=#2D7600;fontColor=#ffffff;fontSize=11;" parent="1" vertex="1">
                    <mxGeometry x="80" y="947.87" width="80" height="15.744680851063828" as="geometry"/>
                </mxCell>
                <mxCell id="233" value="" style="group" parent="1" vertex="1" connectable="0">
                    <mxGeometry x="-260" y="1010" width="80" height="80.00000000000011" as="geometry"/>
                </mxCell>
                <mxCell id="234" value="" style="whiteSpace=wrap;html=1;aspect=fixed;fillColor=#FFFFFF;strokeColor=#000000;" parent="233" vertex="1">
                    <mxGeometry width="80" height="80" as="geometry"/>
                </mxCell>
                <mxCell id="235" value="" style="rounded=0;whiteSpace=wrap;html=1;strokeColor=#2D7600;fillColor=#60a917;fontColor=#ffffff;" parent="233" vertex="1">
                    <mxGeometry width="20" height="50" as="geometry"/>
                </mxCell>
                <mxCell id="236" value="&lt;span style=&quot;font-size: 11px;&quot;&gt;&lt;b style=&quot;font-size: 11px;&quot;&gt;If_queue&lt;/b&gt;&lt;/span&gt;" style="rounded=1;whiteSpace=wrap;html=1;fillColor=#60a917;strokeWidth=2;strokeColor=#2D7600;fontColor=#ffffff;fontSize=11;" parent="1" vertex="1">
                    <mxGeometry x="80" y="1004.9" width="80" height="15.744680851063828" as="geometry"/>
                </mxCell>
                <mxCell id="237" value="&lt;span style=&quot;font-size: 11px;&quot;&gt;&lt;b style=&quot;font-size: 11px;&quot;&gt;If_queue&lt;/b&gt;&lt;/span&gt;" style="rounded=1;whiteSpace=wrap;html=1;fillColor=#60a917;strokeWidth=2;strokeColor=#2D7600;fontColor=#ffffff;fontSize=11;" parent="1" vertex="1">
                    <mxGeometry x="80" y="1067.68" width="80" height="15.744680851063828" as="geometry"/>
                </mxCell>
                <mxCell id="238" value="&lt;span style=&quot;font-size: 11px;&quot;&gt;&lt;b style=&quot;font-size: 11px;&quot;&gt;If_queue&lt;/b&gt;&lt;/span&gt;" style="rounded=1;whiteSpace=wrap;html=1;fillColor=#60a917;strokeWidth=2;strokeColor=#2D7600;fontColor=#ffffff;fontSize=11;" parent="1" vertex="1">
                    <mxGeometry x="80" y="1124.71" width="80" height="15.744680851063828" as="geometry"/>
                </mxCell>
                <mxCell id="240" style="edgeStyle=none;html=1;exitX=0.5;exitY=0;exitDx=0;exitDy=0;entryX=0;entryY=0.5;entryDx=0;entryDy=0;strokeColor=#000000;" parent="1" source="235" target="223" edge="1">
                    <mxGeometry relative="1" as="geometry">
                        <mxPoint x="-130" y="990" as="sourcePoint"/>
                    </mxGeometry>
                </mxCell>
                <mxCell id="241" style="edgeStyle=none;html=1;exitX=0.5;exitY=0;exitDx=0;exitDy=0;entryX=0;entryY=0.25;entryDx=0;entryDy=0;strokeColor=#000000;" parent="1" source="246" target="236" edge="1">
                    <mxGeometry relative="1" as="geometry">
                        <mxPoint x="-120" y="1000" as="sourcePoint"/>
                    </mxGeometry>
                </mxCell>
                <mxCell id="244" value="" style="group" parent="1" vertex="1" connectable="0">
                    <mxGeometry x="-250" y="1020" width="80" height="80.00000000000011" as="geometry"/>
                </mxCell>
                <mxCell id="245" value="" style="whiteSpace=wrap;html=1;aspect=fixed;fillColor=#FFFFFF;strokeColor=#000000;" parent="244" vertex="1">
                    <mxGeometry width="80" height="80" as="geometry"/>
                </mxCell>
                <mxCell id="246" value="" style="rounded=0;whiteSpace=wrap;html=1;strokeColor=#2D7600;fillColor=#60a917;fontColor=#ffffff;" parent="244" vertex="1">
                    <mxGeometry width="20" height="50" as="geometry"/>
                </mxCell>
                <mxCell id="247" value="" style="group" parent="1" vertex="1" connectable="0">
                    <mxGeometry x="-240" y="1030" width="80" height="80.00000000000011" as="geometry"/>
                </mxCell>
                <mxCell id="248" value="" style="whiteSpace=wrap;html=1;aspect=fixed;fillColor=#FFFFFF;strokeColor=#000000;" parent="247" vertex="1">
                    <mxGeometry width="80" height="80" as="geometry"/>
                </mxCell>
                <mxCell id="249" value="" style="rounded=0;whiteSpace=wrap;html=1;strokeColor=#2D7600;fillColor=#60a917;fontColor=#ffffff;" parent="247" vertex="1">
                    <mxGeometry width="20" height="50" as="geometry"/>
                </mxCell>
                <mxCell id="250" value="" style="group" parent="1" vertex="1" connectable="0">
                    <mxGeometry x="-230" y="1040" width="80" height="80.00000000000011" as="geometry"/>
                </mxCell>
                <mxCell id="251" value="" style="whiteSpace=wrap;html=1;aspect=fixed;fillColor=#FFFFFF;strokeColor=#000000;" parent="250" vertex="1">
                    <mxGeometry width="80" height="80" as="geometry"/>
                </mxCell>
                <mxCell id="252" value="" style="rounded=0;whiteSpace=wrap;html=1;strokeColor=#2D7600;fillColor=#60a917;fontColor=#ffffff;" parent="250" vertex="1">
                    <mxGeometry width="20" height="50" as="geometry"/>
                </mxCell>
                <mxCell id="253" style="edgeStyle=none;html=1;exitX=0.5;exitY=0;exitDx=0;exitDy=0;entryX=0;entryY=0.5;entryDx=0;entryDy=0;strokeColor=#000000;" parent="1" source="252" target="238" edge="1">
                    <mxGeometry relative="1" as="geometry"/>
                </mxCell>
                <mxCell id="254" style="edgeStyle=none;html=1;exitX=0.5;exitY=0;exitDx=0;exitDy=0;entryX=0;entryY=0.5;entryDx=0;entryDy=0;strokeColor=#000000;" parent="1" source="249" target="237" edge="1">
                    <mxGeometry relative="1" as="geometry"/>
                </mxCell>
                <mxCell id="255" value="" style="group" parent="1" vertex="1" connectable="0">
                    <mxGeometry x="-9" y="1328" width="23" height="30" as="geometry"/>
                </mxCell>
                <mxCell id="256" value="" style="group" parent="255" vertex="1" connectable="0">
                    <mxGeometry x="3.8333333333333335" width="20.700000000000003" height="30" as="geometry"/>
                </mxCell>
                <mxCell id="257" value="" style="rounded=1;whiteSpace=wrap;html=1;fillColor=none;strokeColor=#000000;strokeWidth=3;" parent="256" vertex="1">
                    <mxGeometry y="-5" width="20.7" height="40" as="geometry"/>
                </mxCell>
                <mxCell id="258" value="" style="triangle;whiteSpace=wrap;html=1;strokeColor=#000000;strokeWidth=3;fillColor=none;" parent="256" vertex="1">
                    <mxGeometry y="13" width="10" height="15" as="geometry"/>
                </mxCell>
                <mxCell id="278" value="" style="group" parent="1" vertex="1" connectable="0">
                    <mxGeometry x="40" y="1333" width="240" height="60" as="geometry"/>
                </mxCell>
                <mxCell id="266" value="" style="group;strokeWidth=3;" parent="278" vertex="1" connectable="0">
                    <mxGeometry x="40" width="60" height="60" as="geometry"/>
                </mxCell>
                <mxCell id="267" value="" style="ellipse;whiteSpace=wrap;html=1;aspect=fixed;strokeColor=#000000;fillColor=none;strokeWidth=3;" parent="266" vertex="1">
                    <mxGeometry width="60" height="60" as="geometry"/>
                </mxCell>
                <mxCell id="268" value="" style="endArrow=none;html=1;exitX=0;exitY=1;exitDx=0;exitDy=0;strokeColor=#000000;strokeWidth=5;" parent="266" edge="1">
                    <mxGeometry width="50" height="50" relative="1" as="geometry">
                        <mxPoint x="13.786796564403346" y="46.213203435596654" as="sourcePoint"/>
                        <mxPoint x="45" y="15" as="targetPoint"/>
                    </mxGeometry>
                </mxCell>
                <mxCell id="269" value="" style="endArrow=none;html=1;exitX=1;exitY=1;exitDx=0;exitDy=0;strokeColor=#000000;strokeWidth=5;" parent="266" edge="1">
                    <mxGeometry width="50" height="50" relative="1" as="geometry">
                        <mxPoint x="46.213203435596654" y="46.213203435596654" as="sourcePoint"/>
                        <mxPoint x="15" y="15" as="targetPoint"/>
                    </mxGeometry>
                </mxCell>
                <mxCell id="270" value="" style="group;strokeWidth=3;rotation=90;direction=south;" parent="278" vertex="1" connectable="0">
                    <mxGeometry x="199" y="10" width="60" height="60" as="geometry"/>
                </mxCell>
                <mxCell id="271" value="" style="group" parent="270" vertex="1" connectable="0">
                    <mxGeometry x="-8.571428571428573" y="-3.552713678800501e-15" width="60" height="60" as="geometry"/>
                </mxCell>
                <mxCell id="272" value="" style="ellipse;whiteSpace=wrap;html=1;aspect=fixed;strokeColor=#000000;fillColor=none;strokeWidth=3;rotation=-90;" parent="271" vertex="1">
                    <mxGeometry x="1.7763568394002505e-15" y="3.552713678800501e-15" width="60" height="60" as="geometry"/>
                </mxCell>
                <mxCell id="273" value="" style="endArrow=none;html=1;strokeColor=#000000;strokeWidth=5;rounded=1;" parent="271" edge="1">
                    <mxGeometry width="50" height="50" relative="1" as="geometry">
                        <mxPoint x="49.57142857142857" y="30.000000000000004" as="sourcePoint"/>
                        <mxPoint x="9.571428571428573" y="30.000000000000004" as="targetPoint"/>
                    </mxGeometry>
                </mxCell>
                <mxCell id="274" value="" style="endArrow=none;html=1;strokeColor=#000000;strokeWidth=5;rounded=1;" parent="271" edge="1">
                    <mxGeometry width="50" height="50" relative="1" as="geometry">
                        <mxPoint x="29.571428571428573" y="10.000000000000004" as="sourcePoint"/>
                        <mxPoint x="29.571428571428573" y="50" as="targetPoint"/>
                    </mxGeometry>
                </mxCell>
                <mxCell id="275" value="" style="endArrow=classic;html=1;fontSize=16;fontColor=#000000;strokeColor=#005700;strokeWidth=3;exitX=1;exitY=0.5;exitDx=0;exitDy=0;fillColor=#008a00;entryX=0.021;entryY=0.274;entryDx=0;entryDy=0;entryPerimeter=0;" parent="278" source="267" target="290" edge="1">
                    <mxGeometry width="50" height="50" relative="1" as="geometry">
                        <mxPoint x="-60" y="50" as="sourcePoint"/>
                        <mxPoint x="130" y="30" as="targetPoint"/>
                    </mxGeometry>
                </mxCell>
                <mxCell id="288" value="" style="group" parent="278" vertex="1" connectable="0">
                    <mxGeometry x="138" y="24" width="23" height="30" as="geometry"/>
                </mxCell>
                <mxCell id="289" value="" style="group" parent="288" vertex="1" connectable="0">
                    <mxGeometry x="3.8333333333333335" width="20.700000000000003" height="30" as="geometry"/>
                </mxCell>
                <mxCell id="290" value="" style="rounded=1;whiteSpace=wrap;html=1;fillColor=none;strokeColor=#000000;strokeWidth=3;" parent="289" vertex="1">
                    <mxGeometry y="-5" width="20.7" height="40" as="geometry"/>
                </mxCell>
                <mxCell id="291" value="" style="triangle;whiteSpace=wrap;html=1;strokeColor=#000000;strokeWidth=3;fillColor=none;" parent="289" vertex="1">
                    <mxGeometry y="13" width="10" height="15" as="geometry"/>
                </mxCell>
                <mxCell id="301" value="" style="endArrow=none;html=1;fontColor=#33FF33;strokeWidth=3;fillColor=#008a00;strokeColor=#005700;" parent="278" edge="1">
                    <mxGeometry width="50" height="50" relative="1" as="geometry">
                        <mxPoint x="104.83000000000001" y="40" as="sourcePoint"/>
                        <mxPoint x="124.83000000000001" y="20" as="targetPoint"/>
                    </mxGeometry>
                </mxCell>
                <mxCell id="302" value="16bits" style="edgeLabel;html=1;align=center;verticalAlign=middle;resizable=0;points=[];fontColor=#000000;labelBackgroundColor=none;" parent="278" vertex="1" connectable="0">
                    <mxGeometry x="113.99666666666675" y="10" as="geometry">
                        <mxPoint x="7" as="offset"/>
                    </mxGeometry>
                </mxCell>
                <mxCell id="280" style="edgeStyle=none;html=1;entryX=0.023;entryY=0.367;entryDx=0;entryDy=0;entryPerimeter=0;fontColor=#33FF33;fillColor=#008a00;strokeColor=#005700;strokeWidth=3;exitX=1.016;exitY=0.304;exitDx=0;exitDy=0;exitPerimeter=0;" parent="1" source="257" target="267" edge="1">
                    <mxGeometry relative="1" as="geometry">
                        <mxPoint x="20" y="1335" as="sourcePoint"/>
                        <Array as="points">
                            <mxPoint x="40" y="1335"/>
                            <mxPoint x="50" y="1355"/>
                        </Array>
                    </mxGeometry>
                </mxCell>
                <mxCell id="283" style="edgeStyle=none;html=1;exitX=1;exitY=0.5;exitDx=0;exitDy=0;entryX=0.046;entryY=0.718;entryDx=0;entryDy=0;entryPerimeter=0;fontColor=#33FF33;fillColor=#008a00;strokeColor=#005700;strokeWidth=3;" parent="1" edge="1">
                    <mxGeometry relative="1" as="geometry">
                        <mxPoint x="16" y="1393" as="sourcePoint"/>
                        <mxPoint x="81.75999999999999" y="1375.08" as="targetPoint"/>
                        <Array as="points">
                            <mxPoint x="39" y="1393"/>
                            <mxPoint x="49" y="1376"/>
                        </Array>
                    </mxGeometry>
                </mxCell>
                <mxCell id="284" value="" style="group" parent="1" vertex="1" connectable="0">
                    <mxGeometry x="-8.469999999999999" y="1386" width="23" height="30" as="geometry"/>
                </mxCell>
                <mxCell id="285" value="" style="group" parent="284" vertex="1" connectable="0">
                    <mxGeometry x="3.8333333333333335" width="20.700000000000003" height="30" as="geometry"/>
                </mxCell>
                <mxCell id="286" value="" style="rounded=1;whiteSpace=wrap;html=1;fillColor=none;strokeColor=#000000;strokeWidth=3;" parent="285" vertex="1">
                    <mxGeometry y="-5" width="20.7" height="40" as="geometry"/>
                </mxCell>
                <mxCell id="287" value="" style="triangle;whiteSpace=wrap;html=1;strokeColor=#000000;strokeWidth=3;fillColor=none;" parent="285" vertex="1">
                    <mxGeometry y="13" width="10" height="15" as="geometry"/>
                </mxCell>
                <mxCell id="292" value="" style="endArrow=classic;html=1;fontSize=16;fontColor=#000000;strokeColor=#005700;strokeWidth=3;exitX=1;exitY=0.5;exitDx=0;exitDy=0;fillColor=#008a00;" parent="1" edge="1">
                    <mxGeometry width="50" height="50" relative="1" as="geometry">
                        <mxPoint x="200.99999999999977" y="1364" as="sourcePoint"/>
                        <mxPoint x="230.99999999999977" y="1364" as="targetPoint"/>
                    </mxGeometry>
                </mxCell>
                <mxCell id="293" value="" style="endArrow=none;html=1;fontColor=#33FF33;strokeWidth=3;fillColor=#008a00;strokeColor=#005700;" parent="1" edge="1">
                    <mxGeometry width="50" height="50" relative="1" as="geometry">
                        <mxPoint x="-49" y="1345" as="sourcePoint"/>
                        <mxPoint x="-29" y="1325" as="targetPoint"/>
                    </mxGeometry>
                </mxCell>
                <mxCell id="295" value="" style="endArrow=classic;html=1;fontSize=16;fontColor=#000000;strokeColor=#005700;strokeWidth=3;fillColor=#008a00;exitX=-0.183;exitY=0.45;exitDx=0;exitDy=0;exitPerimeter=0;" parent="1" source="339" edge="1">
                    <mxGeometry width="50" height="50" relative="1" as="geometry">
                        <mxPoint x="-90" y="1280" as="sourcePoint"/>
                        <mxPoint x="-5.469999999999999" y="1335" as="targetPoint"/>
                        <Array as="points">
                            <mxPoint x="-90" y="1273"/>
                            <mxPoint x="-90" y="1335"/>
                        </Array>
                    </mxGeometry>
                </mxCell>
                <mxCell id="298" value="8bits" style="edgeLabel;html=1;align=center;verticalAlign=middle;resizable=0;points=[];fontColor=#000000;labelBackgroundColor=none;" parent="295" vertex="1" connectable="0">
                    <mxGeometry x="-0.6699" y="2" relative="1" as="geometry">
                        <mxPoint x="38" y="40" as="offset"/>
                    </mxGeometry>
                </mxCell>
                <mxCell id="296" value="" style="endArrow=none;html=1;fontColor=#33FF33;strokeWidth=3;fillColor=#008a00;strokeColor=#005700;" parent="1" edge="1">
                    <mxGeometry width="50" height="50" relative="1" as="geometry">
                        <mxPoint x="-48" y="1404" as="sourcePoint"/>
                        <mxPoint x="-28" y="1384" as="targetPoint"/>
                    </mxGeometry>
                </mxCell>
                <mxCell id="297" value="" style="endArrow=classic;html=1;fontSize=16;fontColor=#000000;strokeColor=#005700;strokeWidth=3;fillColor=#008a00;" parent="1" edge="1">
                    <mxGeometry width="50" height="50" relative="1" as="geometry">
                        <mxPoint x="-59" y="1394" as="sourcePoint"/>
                        <mxPoint x="-4.470000000000027" y="1394" as="targetPoint"/>
                    </mxGeometry>
                </mxCell>
                <mxCell id="300" value="8bits" style="edgeLabel;html=1;align=center;verticalAlign=middle;resizable=0;points=[];fontColor=#000000;labelBackgroundColor=none;" parent="1" vertex="1" connectable="0">
                    <mxGeometry x="-50" y="1386" as="geometry"/>
                </mxCell>
                <mxCell id="304" value="&lt;div&gt;RegFile&lt;/div&gt;&lt;div&gt;64*3B&lt;br&gt;&lt;/div&gt;" style="rounded=1;whiteSpace=wrap;html=1;labelBackgroundColor=none;fontColor=#000000;fillColor=none;strokeColor=#000000;strokeWidth=2;fontSize=12;fontStyle=1" parent="1" vertex="1">
                    <mxGeometry x="347.57" y="1358" width="51" height="119" as="geometry"/>
                </mxCell>
                <mxCell id="306" value="" style="endArrow=classic;html=1;fontSize=16;fontColor=#000000;strokeColor=#005700;strokeWidth=3;exitX=1;exitY=0.5;exitDx=0;exitDy=0;fillColor=#008a00;entryX=0.022;entryY=0.133;entryDx=0;entryDy=0;entryPerimeter=0;" parent="1" target="304" edge="1">
                    <mxGeometry width="50" height="50" relative="1" as="geometry">
                        <mxPoint x="289" y="1374" as="sourcePoint"/>
                        <mxPoint x="319" y="1374" as="targetPoint"/>
                    </mxGeometry>
                </mxCell>
                <mxCell id="307" value="" style="endArrow=classic;html=1;fontSize=16;fontColor=#000000;strokeColor=#A50040;strokeWidth=2;fillColor=#d80073;entryX=0.5;entryY=0;entryDx=0;entryDy=0;endSize=4;" parent="1" target="304" edge="1">
                    <mxGeometry width="50" height="50" relative="1" as="geometry">
                        <mxPoint x="373" y="1329" as="sourcePoint"/>
                        <mxPoint x="358.692" y="1383.8270000000002" as="targetPoint"/>
                    </mxGeometry>
                </mxCell>
                <mxCell id="308" value="Ps_addr" style="edgeLabel;html=1;align=center;verticalAlign=middle;resizable=0;points=[];fontColor=#FF0000;labelBackgroundColor=none;fontSize=14;fontStyle=1" parent="1" vertex="1" connectable="0">
                    <mxGeometry x="384.065652173913" y="1319" as="geometry">
                        <mxPoint x="-10" as="offset"/>
                    </mxGeometry>
                </mxCell>
                <mxCell id="309" value="Din" style="edgeLabel;html=1;align=center;verticalAlign=middle;resizable=0;points=[];fontColor=#000000;labelBackgroundColor=none;fontSize=14;fontStyle=1" parent="1" vertex="1" connectable="0">
                    <mxGeometry x="372.065652173913" y="1376" as="geometry">
                        <mxPoint x="-10" as="offset"/>
                    </mxGeometry>
                </mxCell>
                <mxCell id="310" value="Dout" style="edgeLabel;html=1;align=center;verticalAlign=middle;resizable=0;points=[];fontColor=#000000;labelBackgroundColor=none;fontSize=14;fontStyle=1" parent="1" vertex="1" connectable="0">
                    <mxGeometry x="376.065652173913" y="1456" as="geometry">
                        <mxPoint x="-9" y="-6" as="offset"/>
                    </mxGeometry>
                </mxCell>
                <mxCell id="311" value="" style="endArrow=classic;html=1;fontSize=16;fontColor=#000000;strokeColor=#005700;strokeWidth=3;fillColor=#008a00;exitX=0.057;exitY=0.49;exitDx=0;exitDy=0;exitPerimeter=0;" parent="1" source="318" edge="1">
                    <mxGeometry width="50" height="50" relative="1" as="geometry">
                        <mxPoint x="344" y="1456" as="sourcePoint"/>
                        <mxPoint x="231" y="1383.0000000000002" as="targetPoint"/>
                        <Array as="points">
                            <mxPoint x="208" y="1456"/>
                            <mxPoint x="208" y="1383"/>
                        </Array>
                    </mxGeometry>
                </mxCell>
                <mxCell id="314" value="" style="group" parent="1" vertex="1" connectable="0">
                    <mxGeometry x="299.9999999999999" y="1425" width="25.166666666666828" height="30" as="geometry"/>
                </mxCell>
                <mxCell id="312" value="" style="endArrow=none;html=1;fontColor=#33FF33;strokeWidth=3;fillColor=#008a00;strokeColor=#005700;" parent="314" edge="1">
                    <mxGeometry width="50" height="50" relative="1" as="geometry">
                        <mxPoint y="30" as="sourcePoint"/>
                        <mxPoint x="20" y="10" as="targetPoint"/>
                    </mxGeometry>
                </mxCell>
                <mxCell id="313" value="24bits" style="edgeLabel;html=1;align=center;verticalAlign=middle;resizable=0;points=[];fontColor=#000000;labelBackgroundColor=none;" parent="314" vertex="1" connectable="0">
                    <mxGeometry x="18.166666666666828" as="geometry">
                        <mxPoint x="7" as="offset"/>
                    </mxGeometry>
                </mxCell>
                <mxCell id="315" value="" style="group" parent="1" vertex="1" connectable="0">
                    <mxGeometry x="299.9999999999999" y="1355" width="25.166666666666828" height="30" as="geometry"/>
                </mxCell>
                <mxCell id="316" value="" style="endArrow=none;html=1;fontColor=#33FF33;strokeWidth=3;fillColor=#008a00;strokeColor=#005700;" parent="315" edge="1">
                    <mxGeometry width="50" height="50" relative="1" as="geometry">
                        <mxPoint y="30" as="sourcePoint"/>
                        <mxPoint x="20" y="10" as="targetPoint"/>
                    </mxGeometry>
                </mxCell>
                <mxCell id="317" value="24bits" style="edgeLabel;html=1;align=center;verticalAlign=middle;resizable=0;points=[];fontColor=#000000;labelBackgroundColor=none;" parent="315" vertex="1" connectable="0">
                    <mxGeometry x="18.166666666666828" as="geometry">
                        <mxPoint x="7" as="offset"/>
                    </mxGeometry>
                </mxCell>
                <mxCell id="318" value="" style="shadow=0;dashed=0;align=center;html=1;strokeWidth=3;shape=mxgraph.rtl.abstract.entity;container=1;collapsible=0;kind=demux;drawPins=0;left=1;right=4;bottom=0;fillColor=#FFFFFF;strokeColor=#000000;rotation=0;fontSize=14;" parent="1" vertex="1">
                    <mxGeometry x="231.43" y="1432" width="10" height="50" as="geometry"/>
                </mxCell>
                <mxCell id="320" value="" style="endArrow=classic;html=1;fontSize=16;fontColor=#000000;strokeColor=#005700;strokeWidth=3;exitX=-0.042;exitY=0.721;exitDx=0;exitDy=0;fillColor=#008a00;exitPerimeter=0;entryX=1.021;entryY=0.154;entryDx=0;entryDy=0;entryPerimeter=0;" parent="1" source="304" edge="1">
                    <mxGeometry width="50" height="50" relative="1" as="geometry">
                        <mxPoint x="345.5809999999999" y="1444.1100000000001" as="sourcePoint"/>
                        <mxPoint x="241.63999999999987" y="1443.7" as="targetPoint"/>
                    </mxGeometry>
                </mxCell>
                <mxCell id="321" value="" style="endArrow=classic;html=1;fontSize=16;fontColor=#000000;strokeColor=#005700;strokeWidth=3;fillColor=#008a00;entryX=1.021;entryY=0.154;entryDx=0;entryDy=0;entryPerimeter=0;exitX=1;exitY=0.5;exitDx=0;exitDy=0;" parent="1" source="329" edge="1">
                    <mxGeometry width="50" height="50" relative="1" as="geometry">
                        <mxPoint x="120" y="1519" as="sourcePoint"/>
                        <mxPoint x="241.42999999999986" y="1469" as="targetPoint"/>
                        <Array as="points">
                            <mxPoint x="290" y="1519"/>
                            <mxPoint x="290" y="1469"/>
                        </Array>
                    </mxGeometry>
                </mxCell>
                <mxCell id="322" value="" style="endArrow=classic;html=1;fontSize=16;fontColor=#000000;strokeColor=#A50040;strokeWidth=2;fillColor=#d80073;entryX=0.857;entryY=0.94;entryDx=0;entryDy=0;entryPerimeter=0;endFill=1;endSize=2;" parent="1" edge="1">
                    <mxGeometry width="50" height="50" relative="1" as="geometry">
                        <mxPoint x="160" y="1499" as="sourcePoint"/>
                        <mxPoint x="235" y="1477.0000000000002" as="targetPoint"/>
                        <Array as="points">
                            <mxPoint x="235" y="1499"/>
                        </Array>
                    </mxGeometry>
                </mxCell>
                <mxCell id="325" value="Ps_outer_en" style="edgeLabel;html=1;align=center;verticalAlign=middle;resizable=0;points=[];fontColor=#FF0000;labelBackgroundColor=none;fontSize=14;fontStyle=1" parent="1" vertex="1" connectable="0">
                    <mxGeometry x="177.99565217391302" y="1482" as="geometry">
                        <mxPoint x="-10" as="offset"/>
                    </mxGeometry>
                </mxCell>
                <mxCell id="326" value="" style="group" parent="1" vertex="1" connectable="0">
                    <mxGeometry x="-50.000000000000114" y="1499" width="25.166666666666828" height="30" as="geometry"/>
                </mxCell>
                <mxCell id="327" value="" style="endArrow=none;html=1;fontColor=#33FF33;strokeWidth=3;fillColor=#008a00;strokeColor=#005700;" parent="326" edge="1">
                    <mxGeometry width="50" height="50" relative="1" as="geometry">
                        <mxPoint y="30" as="sourcePoint"/>
                        <mxPoint x="20" y="10" as="targetPoint"/>
                    </mxGeometry>
                </mxCell>
                <mxCell id="328" value="16bits" style="edgeLabel;html=1;align=center;verticalAlign=middle;resizable=0;points=[];fontColor=#000000;labelBackgroundColor=none;" parent="326" vertex="1" connectable="0">
                    <mxGeometry x="18.166666666666828" as="geometry">
                        <mxPoint x="7" as="offset"/>
                    </mxGeometry>
                </mxCell>
                <mxCell id="329" value="Fix" style="rounded=1;whiteSpace=wrap;html=1;fillColor=none;strokeColor=#000000;strokeWidth=3;fontColor=#000000;fontSize=14;fontStyle=1;verticalAlign=bottom;" parent="1" vertex="1">
                    <mxGeometry x="50" y="1510" width="50" height="19" as="geometry"/>
                </mxCell>
                <mxCell id="330" value="" style="endArrow=classic;html=1;fontSize=16;fontColor=#000000;strokeColor=#005700;strokeWidth=3;fillColor=#008a00;entryX=-0.053;entryY=0.426;entryDx=0;entryDy=0;entryPerimeter=0;" parent="1" target="329" edge="1">
                    <mxGeometry width="50" height="50" relative="1" as="geometry">
                        <mxPoint x="-60" y="1518" as="sourcePoint"/>
                        <mxPoint x="4.529999999999973" y="1519.3" as="targetPoint"/>
                    </mxGeometry>
                </mxCell>
                <mxCell id="331" value="24bits" style="edgeLabel;html=1;align=center;verticalAlign=middle;resizable=0;points=[];fontColor=#000000;labelBackgroundColor=none;" parent="1" vertex="1" connectable="0">
                    <mxGeometry x="121" y="1503" as="geometry"/>
                </mxCell>
                <mxCell id="332" value="" style="endArrow=none;html=1;fontColor=#33FF33;strokeWidth=3;fillColor=#008a00;strokeColor=#005700;" parent="1" edge="1">
                    <mxGeometry width="50" height="50" relative="1" as="geometry">
                        <mxPoint x="111" y="1531" as="sourcePoint"/>
                        <mxPoint x="131" y="1511" as="targetPoint"/>
                    </mxGeometry>
                </mxCell>
                <mxCell id="333" value="" style="endArrow=classic;html=1;fontSize=16;fontColor=#000000;strokeColor=#005700;strokeWidth=3;fillColor=#008a00;" parent="1" edge="1">
                    <mxGeometry width="50" height="50" relative="1" as="geometry">
                        <mxPoint x="350" y="1444" as="sourcePoint"/>
                        <mxPoint x="331" y="1500" as="targetPoint"/>
                        <Array as="points">
                            <mxPoint x="331" y="1444"/>
                        </Array>
                    </mxGeometry>
                </mxCell>
                <mxCell id="334" value="SAR" style="rounded=1;whiteSpace=wrap;html=1;fillColor=none;strokeColor=#000000;strokeWidth=3;fontColor=#000000;fontSize=14;fontStyle=1;verticalAlign=bottom;" parent="1" vertex="1">
                    <mxGeometry x="307.43" y="1501" width="50" height="19" as="geometry"/>
                </mxCell>
                <mxCell id="335" value="" style="endArrow=classic;html=1;fontSize=16;fontColor=#000000;strokeColor=#005700;strokeWidth=3;exitX=1;exitY=0.5;exitDx=0;exitDy=0;fillColor=#008a00;entryX=1.018;entryY=0.758;entryDx=0;entryDy=0;entryPerimeter=0;" parent="1" source="334" target="339" edge="1">
                    <mxGeometry width="50" height="50" relative="1" as="geometry">
                        <mxPoint x="449.28800000000035" y="1560.099" as="sourcePoint"/>
                        <mxPoint x="-60" y="1280" as="targetPoint"/>
                        <Array as="points">
                            <mxPoint x="460" y="1511"/>
                            <mxPoint x="460" y="1288"/>
                        </Array>
                    </mxGeometry>
                </mxCell>
                <mxCell id="336" value="" style="group;rotation=90;" parent="1" vertex="1" connectable="0">
                    <mxGeometry x="399.9999999999999" y="1492" width="25.166666666666828" height="30" as="geometry"/>
                </mxCell>
                <mxCell id="337" value="" style="endArrow=none;html=1;fontColor=#33FF33;strokeWidth=3;fillColor=#008a00;strokeColor=#005700;" parent="336" edge="1">
                    <mxGeometry width="50" height="50" relative="1" as="geometry">
                        <mxPoint y="30" as="sourcePoint"/>
                        <mxPoint x="20" y="10" as="targetPoint"/>
                    </mxGeometry>
                </mxCell>
                <mxCell id="338" value="8bits" style="edgeLabel;html=1;align=center;verticalAlign=middle;resizable=0;points=[];fontColor=#000000;labelBackgroundColor=none;" parent="336" vertex="1" connectable="0">
                    <mxGeometry x="-0.0033333333331739823" y="8" as="geometry">
                        <mxPoint x="10" y="-3" as="offset"/>
                    </mxGeometry>
                </mxCell>
                <mxCell id="339" value="" style="shadow=0;dashed=0;align=center;html=1;strokeWidth=3;shape=mxgraph.rtl.abstract.entity;container=1;collapsible=0;kind=demux;drawPins=0;left=1;right=4;bottom=0;fillColor=#FFFFFF;strokeColor=#000000;rotation=0;" parent="1" vertex="1">
                    <mxGeometry x="-70.00000000000001" y="1250" width="10" height="50" as="geometry"/>
                </mxCell>
                <mxCell id="340" value="" style="endArrow=classic;html=1;fontSize=16;fontColor=#000000;strokeColor=#005700;strokeWidth=3;fillColor=#008a00;entryX=0;entryY=0;entryDx=10;entryDy=10;entryPerimeter=0;" parent="1" target="339" edge="1">
                    <mxGeometry width="50" height="50" relative="1" as="geometry">
                        <mxPoint x="-130" y="1230" as="sourcePoint"/>
                        <mxPoint x="49.99999999999997" y="1240.9999999999998" as="targetPoint"/>
                        <Array as="points">
                            <mxPoint x="-10" y="1230"/>
                            <mxPoint x="-10" y="1260"/>
                        </Array>
                    </mxGeometry>
                </mxCell>
                <mxCell id="341" value="8bits" style="edgeLabel;html=1;align=center;verticalAlign=middle;resizable=0;points=[];fontColor=#000000;labelBackgroundColor=none;" parent="340" vertex="1" connectable="0">
                    <mxGeometry x="-0.6699" y="2" relative="1" as="geometry">
                        <mxPoint x="-10" y="-10" as="offset"/>
                    </mxGeometry>
                </mxCell>
                <mxCell id="342" value="" style="endArrow=none;html=1;fontColor=#33FF33;strokeWidth=3;fillColor=#008a00;strokeColor=#005700;" parent="1" edge="1">
                    <mxGeometry width="50" height="50" relative="1" as="geometry">
                        <mxPoint x="-111.43" y="1241" as="sourcePoint"/>
                        <mxPoint x="-91.43" y="1221" as="targetPoint"/>
                    </mxGeometry>
                </mxCell>
                <mxCell id="344" value="" style="endArrow=classic;html=1;fontSize=16;fontColor=#000000;strokeColor=#A50040;strokeWidth=2;fillColor=#d80073;endSize=4;" parent="1" edge="1">
                    <mxGeometry width="50" height="50" relative="1" as="geometry">
                        <mxPoint x="332" y="1540" as="sourcePoint"/>
                        <mxPoint x="332" y="1520" as="targetPoint"/>
                        <Array as="points"/>
                    </mxGeometry>
                </mxCell>
                <mxCell id="346" value="Ps_fix_typ" style="edgeLabel;html=1;align=center;verticalAlign=middle;resizable=0;points=[];fontColor=#FF0000;labelBackgroundColor=none;fontSize=14;fontStyle=1" parent="1" vertex="1" connectable="0">
                    <mxGeometry x="340.995652173913" y="1547" as="geometry">
                        <mxPoint x="-10" as="offset"/>
                    </mxGeometry>
                </mxCell>
                <mxCell id="351" value="" style="endArrow=classic;html=1;fontSize=16;fontColor=#000000;strokeColor=#A50040;strokeWidth=2;fillColor=#d80073;entryX=0.332;entryY=0.105;entryDx=0;entryDy=0;endSize=4;entryPerimeter=0;" parent="1" target="339" edge="1">
                    <mxGeometry width="50" height="50" relative="1" as="geometry">
                        <mxPoint x="-67" y="1210" as="sourcePoint"/>
                        <mxPoint x="-65.93000000000029" y="1250" as="targetPoint"/>
                    </mxGeometry>
                </mxCell>
                <mxCell id="352" value="Ps_back_en" style="edgeLabel;html=1;align=center;verticalAlign=middle;resizable=0;points=[];fontColor=#FF0000;labelBackgroundColor=none;fontSize=14;fontStyle=1" parent="1" vertex="1" connectable="0">
                    <mxGeometry x="-54.934347826086984" y="1211" as="geometry">
                        <mxPoint x="-5" y="-13" as="offset"/>
                    </mxGeometry>
                </mxCell>
            </root>
        </mxGraphModel>
    </diagram>
    <diagram id="SM75UF8xmwJRsy4SrqIh" name="PE design">
        <mxGraphModel dx="1629" dy="-344" grid="1" gridSize="10" guides="1" tooltips="1" connect="1" arrows="1" fold="1" page="1" pageScale="1" pageWidth="827" pageHeight="1169" background="#ffffff" math="0" shadow="0">
            <root>
                <mxCell id="Yg6gIH0kXs_u7WOj-Na7-0"/>
                <mxCell id="Yg6gIH0kXs_u7WOj-Na7-1" parent="Yg6gIH0kXs_u7WOj-Na7-0"/>
                <mxCell id="0hEqOD7Z_6EfmO8MXV1T-0" value="" style="group" vertex="1" connectable="0" parent="Yg6gIH0kXs_u7WOj-Na7-1">
                    <mxGeometry x="-299" y="1648" width="23" height="30" as="geometry"/>
                </mxCell>
                <mxCell id="0hEqOD7Z_6EfmO8MXV1T-1" value="" style="group" vertex="1" connectable="0" parent="0hEqOD7Z_6EfmO8MXV1T-0">
                    <mxGeometry x="3.8333333333333335" width="20.700000000000003" height="30" as="geometry"/>
                </mxCell>
                <mxCell id="0hEqOD7Z_6EfmO8MXV1T-2" value="" style="rounded=1;whiteSpace=wrap;html=1;fillColor=none;strokeColor=#000000;strokeWidth=3;" vertex="1" parent="0hEqOD7Z_6EfmO8MXV1T-1">
                    <mxGeometry y="-5" width="20.7" height="40" as="geometry"/>
                </mxCell>
                <mxCell id="0hEqOD7Z_6EfmO8MXV1T-3" value="" style="triangle;whiteSpace=wrap;html=1;strokeColor=#000000;strokeWidth=3;fillColor=none;" vertex="1" parent="0hEqOD7Z_6EfmO8MXV1T-1">
                    <mxGeometry y="13" width="10" height="15" as="geometry"/>
                </mxCell>
                <mxCell id="0hEqOD7Z_6EfmO8MXV1T-4" value="" style="group" vertex="1" connectable="0" parent="Yg6gIH0kXs_u7WOj-Na7-1">
                    <mxGeometry x="-250" y="1653" width="240" height="60" as="geometry"/>
                </mxCell>
                <mxCell id="0hEqOD7Z_6EfmO8MXV1T-5" value="" style="group;strokeWidth=3;" vertex="1" connectable="0" parent="0hEqOD7Z_6EfmO8MXV1T-4">
                    <mxGeometry x="40" width="60" height="60" as="geometry"/>
                </mxCell>
                <mxCell id="0hEqOD7Z_6EfmO8MXV1T-6" value="" style="ellipse;whiteSpace=wrap;html=1;aspect=fixed;strokeColor=#000000;fillColor=none;strokeWidth=3;" vertex="1" parent="0hEqOD7Z_6EfmO8MXV1T-5">
                    <mxGeometry width="60" height="60" as="geometry"/>
                </mxCell>
                <mxCell id="0hEqOD7Z_6EfmO8MXV1T-7" value="" style="endArrow=none;html=1;exitX=0;exitY=1;exitDx=0;exitDy=0;strokeColor=#000000;strokeWidth=5;" edge="1" parent="0hEqOD7Z_6EfmO8MXV1T-5">
                    <mxGeometry width="50" height="50" relative="1" as="geometry">
                        <mxPoint x="13.786796564403346" y="46.213203435596654" as="sourcePoint"/>
                        <mxPoint x="45" y="15" as="targetPoint"/>
                    </mxGeometry>
                </mxCell>
                <mxCell id="0hEqOD7Z_6EfmO8MXV1T-8" value="" style="endArrow=none;html=1;exitX=1;exitY=1;exitDx=0;exitDy=0;strokeColor=#000000;strokeWidth=5;" edge="1" parent="0hEqOD7Z_6EfmO8MXV1T-5">
                    <mxGeometry width="50" height="50" relative="1" as="geometry">
                        <mxPoint x="46.213203435596654" y="46.213203435596654" as="sourcePoint"/>
                        <mxPoint x="15" y="15" as="targetPoint"/>
                    </mxGeometry>
                </mxCell>
                <mxCell id="0hEqOD7Z_6EfmO8MXV1T-9" value="" style="group;strokeWidth=3;rotation=90;direction=south;" vertex="1" connectable="0" parent="0hEqOD7Z_6EfmO8MXV1T-4">
                    <mxGeometry x="199" y="10" width="60" height="60" as="geometry"/>
                </mxCell>
                <mxCell id="0hEqOD7Z_6EfmO8MXV1T-10" value="" style="group" vertex="1" connectable="0" parent="0hEqOD7Z_6EfmO8MXV1T-9">
                    <mxGeometry x="-8.571428571428573" y="-3.552713678800501e-15" width="60" height="60" as="geometry"/>
                </mxCell>
                <mxCell id="0hEqOD7Z_6EfmO8MXV1T-11" value="" style="ellipse;whiteSpace=wrap;html=1;aspect=fixed;strokeColor=#000000;fillColor=none;strokeWidth=3;rotation=-90;" vertex="1" parent="0hEqOD7Z_6EfmO8MXV1T-10">
                    <mxGeometry x="1.7763568394002505e-15" y="3.552713678800501e-15" width="60" height="60" as="geometry"/>
                </mxCell>
                <mxCell id="0hEqOD7Z_6EfmO8MXV1T-12" value="" style="endArrow=none;html=1;strokeColor=#000000;strokeWidth=5;rounded=1;" edge="1" parent="0hEqOD7Z_6EfmO8MXV1T-10">
                    <mxGeometry width="50" height="50" relative="1" as="geometry">
                        <mxPoint x="49.57142857142857" y="30.000000000000004" as="sourcePoint"/>
                        <mxPoint x="9.571428571428573" y="30.000000000000004" as="targetPoint"/>
                    </mxGeometry>
                </mxCell>
                <mxCell id="0hEqOD7Z_6EfmO8MXV1T-13" value="" style="endArrow=none;html=1;strokeColor=#000000;strokeWidth=5;rounded=1;" edge="1" parent="0hEqOD7Z_6EfmO8MXV1T-10">
                    <mxGeometry width="50" height="50" relative="1" as="geometry">
                        <mxPoint x="29.571428571428573" y="10.000000000000004" as="sourcePoint"/>
                        <mxPoint x="29.571428571428573" y="50" as="targetPoint"/>
                    </mxGeometry>
                </mxCell>
                <mxCell id="0hEqOD7Z_6EfmO8MXV1T-14" value="" style="endArrow=classic;html=1;fontSize=16;fontColor=#000000;strokeColor=#005700;strokeWidth=3;exitX=1;exitY=0.5;exitDx=0;exitDy=0;fillColor=#008a00;entryX=0.021;entryY=0.274;entryDx=0;entryDy=0;entryPerimeter=0;" edge="1" parent="0hEqOD7Z_6EfmO8MXV1T-4" source="0hEqOD7Z_6EfmO8MXV1T-6" target="0hEqOD7Z_6EfmO8MXV1T-17">
                    <mxGeometry width="50" height="50" relative="1" as="geometry">
                        <mxPoint x="-60" y="50" as="sourcePoint"/>
                        <mxPoint x="130" y="30" as="targetPoint"/>
                    </mxGeometry>
                </mxCell>
                <mxCell id="0hEqOD7Z_6EfmO8MXV1T-15" value="" style="group" vertex="1" connectable="0" parent="0hEqOD7Z_6EfmO8MXV1T-4">
                    <mxGeometry x="138" y="24" width="23" height="30" as="geometry"/>
                </mxCell>
                <mxCell id="0hEqOD7Z_6EfmO8MXV1T-16" value="" style="group" vertex="1" connectable="0" parent="0hEqOD7Z_6EfmO8MXV1T-15">
                    <mxGeometry x="3.8333333333333335" width="20.700000000000003" height="30" as="geometry"/>
                </mxCell>
                <mxCell id="0hEqOD7Z_6EfmO8MXV1T-17" value="" style="rounded=1;whiteSpace=wrap;html=1;fillColor=none;strokeColor=#000000;strokeWidth=3;" vertex="1" parent="0hEqOD7Z_6EfmO8MXV1T-16">
                    <mxGeometry y="-5" width="20.7" height="40" as="geometry"/>
                </mxCell>
                <mxCell id="0hEqOD7Z_6EfmO8MXV1T-18" value="" style="triangle;whiteSpace=wrap;html=1;strokeColor=#000000;strokeWidth=3;fillColor=none;" vertex="1" parent="0hEqOD7Z_6EfmO8MXV1T-16">
                    <mxGeometry y="13" width="10" height="15" as="geometry"/>
                </mxCell>
                <mxCell id="0hEqOD7Z_6EfmO8MXV1T-19" value="" style="endArrow=none;html=1;fontColor=#33FF33;strokeWidth=3;fillColor=#008a00;strokeColor=#005700;" edge="1" parent="0hEqOD7Z_6EfmO8MXV1T-4">
                    <mxGeometry width="50" height="50" relative="1" as="geometry">
                        <mxPoint x="104.83000000000001" y="40" as="sourcePoint"/>
                        <mxPoint x="124.83000000000001" y="20" as="targetPoint"/>
                    </mxGeometry>
                </mxCell>
                <mxCell id="0hEqOD7Z_6EfmO8MXV1T-20" value="16bits" style="edgeLabel;html=1;align=center;verticalAlign=middle;resizable=0;points=[];fontColor=#000000;labelBackgroundColor=none;" vertex="1" connectable="0" parent="0hEqOD7Z_6EfmO8MXV1T-4">
                    <mxGeometry x="113.99666666666675" y="10" as="geometry">
                        <mxPoint x="7" as="offset"/>
                    </mxGeometry>
                </mxCell>
                <mxCell id="0hEqOD7Z_6EfmO8MXV1T-21" style="edgeStyle=none;html=1;entryX=0.023;entryY=0.367;entryDx=0;entryDy=0;entryPerimeter=0;fontColor=#33FF33;fillColor=#008a00;strokeColor=#005700;strokeWidth=3;exitX=1.016;exitY=0.304;exitDx=0;exitDy=0;exitPerimeter=0;" edge="1" parent="Yg6gIH0kXs_u7WOj-Na7-1" source="0hEqOD7Z_6EfmO8MXV1T-2" target="0hEqOD7Z_6EfmO8MXV1T-6">
                    <mxGeometry relative="1" as="geometry">
                        <mxPoint x="-270" y="1655" as="sourcePoint"/>
                        <Array as="points">
                            <mxPoint x="-250" y="1655"/>
                            <mxPoint x="-240" y="1675"/>
                        </Array>
                    </mxGeometry>
                </mxCell>
                <mxCell id="0hEqOD7Z_6EfmO8MXV1T-22" style="edgeStyle=none;html=1;exitX=1;exitY=0.5;exitDx=0;exitDy=0;entryX=0.046;entryY=0.718;entryDx=0;entryDy=0;entryPerimeter=0;fontColor=#33FF33;fillColor=#008a00;strokeColor=#005700;strokeWidth=3;" edge="1" parent="Yg6gIH0kXs_u7WOj-Na7-1">
                    <mxGeometry relative="1" as="geometry">
                        <mxPoint x="-274" y="1713" as="sourcePoint"/>
                        <mxPoint x="-208.23999999999978" y="1695.08" as="targetPoint"/>
                        <Array as="points">
                            <mxPoint x="-251" y="1713"/>
                            <mxPoint x="-241" y="1696"/>
                        </Array>
                    </mxGeometry>
                </mxCell>
                <mxCell id="0hEqOD7Z_6EfmO8MXV1T-23" value="" style="group" vertex="1" connectable="0" parent="Yg6gIH0kXs_u7WOj-Na7-1">
                    <mxGeometry x="-298.47" y="1706" width="23" height="30" as="geometry"/>
                </mxCell>
                <mxCell id="0hEqOD7Z_6EfmO8MXV1T-24" value="" style="group" vertex="1" connectable="0" parent="0hEqOD7Z_6EfmO8MXV1T-23">
                    <mxGeometry x="3.8333333333333335" width="20.700000000000003" height="30" as="geometry"/>
                </mxCell>
                <mxCell id="0hEqOD7Z_6EfmO8MXV1T-25" value="" style="rounded=1;whiteSpace=wrap;html=1;fillColor=none;strokeColor=#000000;strokeWidth=3;" vertex="1" parent="0hEqOD7Z_6EfmO8MXV1T-24">
                    <mxGeometry y="-5" width="20.7" height="40" as="geometry"/>
                </mxCell>
                <mxCell id="0hEqOD7Z_6EfmO8MXV1T-26" value="" style="triangle;whiteSpace=wrap;html=1;strokeColor=#000000;strokeWidth=3;fillColor=none;" vertex="1" parent="0hEqOD7Z_6EfmO8MXV1T-24">
                    <mxGeometry y="13" width="10" height="15" as="geometry"/>
                </mxCell>
                <mxCell id="0hEqOD7Z_6EfmO8MXV1T-27" value="" style="endArrow=classic;html=1;fontSize=16;fontColor=#000000;strokeColor=#005700;strokeWidth=3;exitX=1;exitY=0.5;exitDx=0;exitDy=0;fillColor=#008a00;" edge="1" parent="Yg6gIH0kXs_u7WOj-Na7-1">
                    <mxGeometry width="50" height="50" relative="1" as="geometry">
                        <mxPoint x="-89" y="1684" as="sourcePoint"/>
                        <mxPoint x="-59" y="1684" as="targetPoint"/>
                    </mxGeometry>
                </mxCell>
                <mxCell id="0hEqOD7Z_6EfmO8MXV1T-28" value="" style="endArrow=none;html=1;fontColor=#33FF33;strokeWidth=3;fillColor=#008a00;strokeColor=#005700;" edge="1" parent="Yg6gIH0kXs_u7WOj-Na7-1">
                    <mxGeometry width="50" height="50" relative="1" as="geometry">
                        <mxPoint x="-339" y="1665" as="sourcePoint"/>
                        <mxPoint x="-319" y="1645" as="targetPoint"/>
                    </mxGeometry>
                </mxCell>
                <mxCell id="0hEqOD7Z_6EfmO8MXV1T-29" value="" style="endArrow=classic;html=1;fontSize=16;fontColor=#000000;strokeColor=#005700;strokeWidth=3;fillColor=#008a00;exitX=-0.183;exitY=0.45;exitDx=0;exitDy=0;exitPerimeter=0;" edge="1" parent="Yg6gIH0kXs_u7WOj-Na7-1" source="0hEqOD7Z_6EfmO8MXV1T-65">
                    <mxGeometry width="50" height="50" relative="1" as="geometry">
                        <mxPoint x="-380" y="1600" as="sourcePoint"/>
                        <mxPoint x="-295.4699999999998" y="1655" as="targetPoint"/>
                        <Array as="points">
                            <mxPoint x="-380" y="1593"/>
                            <mxPoint x="-380" y="1655"/>
                        </Array>
                    </mxGeometry>
                </mxCell>
                <mxCell id="0hEqOD7Z_6EfmO8MXV1T-30" value="8bits" style="edgeLabel;html=1;align=center;verticalAlign=middle;resizable=0;points=[];fontColor=#000000;labelBackgroundColor=none;" vertex="1" connectable="0" parent="0hEqOD7Z_6EfmO8MXV1T-29">
                    <mxGeometry x="-0.6699" y="2" relative="1" as="geometry">
                        <mxPoint x="38" y="40" as="offset"/>
                    </mxGeometry>
                </mxCell>
                <mxCell id="0hEqOD7Z_6EfmO8MXV1T-31" value="" style="endArrow=none;html=1;fontColor=#33FF33;strokeWidth=3;fillColor=#008a00;strokeColor=#005700;" edge="1" parent="Yg6gIH0kXs_u7WOj-Na7-1">
                    <mxGeometry width="50" height="50" relative="1" as="geometry">
                        <mxPoint x="-338" y="1724" as="sourcePoint"/>
                        <mxPoint x="-318" y="1704" as="targetPoint"/>
                    </mxGeometry>
                </mxCell>
                <mxCell id="0hEqOD7Z_6EfmO8MXV1T-32" value="" style="endArrow=classic;html=1;fontSize=16;fontColor=#000000;strokeColor=#005700;strokeWidth=3;fillColor=#008a00;" edge="1" parent="Yg6gIH0kXs_u7WOj-Na7-1">
                    <mxGeometry width="50" height="50" relative="1" as="geometry">
                        <mxPoint x="-349" y="1714" as="sourcePoint"/>
                        <mxPoint x="-294.47000000000025" y="1714" as="targetPoint"/>
                    </mxGeometry>
                </mxCell>
                <mxCell id="0hEqOD7Z_6EfmO8MXV1T-33" value="8bits" style="edgeLabel;html=1;align=center;verticalAlign=middle;resizable=0;points=[];fontColor=#000000;labelBackgroundColor=none;" vertex="1" connectable="0" parent="Yg6gIH0kXs_u7WOj-Na7-1">
                    <mxGeometry x="-340" y="1706" as="geometry"/>
                </mxCell>
                <mxCell id="0hEqOD7Z_6EfmO8MXV1T-34" value="&lt;div&gt;RegFile&lt;/div&gt;&lt;div&gt;64*3B&lt;br&gt;&lt;/div&gt;" style="rounded=1;whiteSpace=wrap;html=1;labelBackgroundColor=none;fontColor=#000000;fillColor=none;strokeColor=#000000;strokeWidth=2;fontSize=12;fontStyle=1" vertex="1" parent="Yg6gIH0kXs_u7WOj-Na7-1">
                    <mxGeometry x="57.56999999999999" y="1678" width="51" height="119" as="geometry"/>
                </mxCell>
                <mxCell id="0hEqOD7Z_6EfmO8MXV1T-35" value="" style="endArrow=classic;html=1;fontSize=16;fontColor=#000000;strokeColor=#005700;strokeWidth=3;exitX=1;exitY=0.5;exitDx=0;exitDy=0;fillColor=#008a00;entryX=0.022;entryY=0.133;entryDx=0;entryDy=0;entryPerimeter=0;" edge="1" parent="Yg6gIH0kXs_u7WOj-Na7-1" target="0hEqOD7Z_6EfmO8MXV1T-34">
                    <mxGeometry width="50" height="50" relative="1" as="geometry">
                        <mxPoint x="-1" y="1694" as="sourcePoint"/>
                        <mxPoint x="29" y="1694" as="targetPoint"/>
                    </mxGeometry>
                </mxCell>
                <mxCell id="0hEqOD7Z_6EfmO8MXV1T-36" value="" style="endArrow=classic;html=1;fontSize=16;fontColor=#000000;strokeColor=#A50040;strokeWidth=2;fillColor=#d80073;entryX=0.5;entryY=0;entryDx=0;entryDy=0;endSize=4;" edge="1" parent="Yg6gIH0kXs_u7WOj-Na7-1" target="0hEqOD7Z_6EfmO8MXV1T-34">
                    <mxGeometry width="50" height="50" relative="1" as="geometry">
                        <mxPoint x="83" y="1649" as="sourcePoint"/>
                        <mxPoint x="68.69200000000001" y="1703.8270000000002" as="targetPoint"/>
                    </mxGeometry>
                </mxCell>
                <mxCell id="0hEqOD7Z_6EfmO8MXV1T-37" value="Ps_addr" style="edgeLabel;html=1;align=center;verticalAlign=middle;resizable=0;points=[];fontColor=#FF0000;labelBackgroundColor=none;fontSize=14;fontStyle=1" vertex="1" connectable="0" parent="Yg6gIH0kXs_u7WOj-Na7-1">
                    <mxGeometry x="94.06565217391301" y="1639" as="geometry">
                        <mxPoint x="-10" as="offset"/>
                    </mxGeometry>
                </mxCell>
                <mxCell id="0hEqOD7Z_6EfmO8MXV1T-38" value="Din" style="edgeLabel;html=1;align=center;verticalAlign=middle;resizable=0;points=[];fontColor=#000000;labelBackgroundColor=none;fontSize=14;fontStyle=1" vertex="1" connectable="0" parent="Yg6gIH0kXs_u7WOj-Na7-1">
                    <mxGeometry x="82.06565217391301" y="1696" as="geometry">
                        <mxPoint x="-10" as="offset"/>
                    </mxGeometry>
                </mxCell>
                <mxCell id="0hEqOD7Z_6EfmO8MXV1T-39" value="Dout" style="edgeLabel;html=1;align=center;verticalAlign=middle;resizable=0;points=[];fontColor=#000000;labelBackgroundColor=none;fontSize=14;fontStyle=1" vertex="1" connectable="0" parent="Yg6gIH0kXs_u7WOj-Na7-1">
                    <mxGeometry x="86.06565217391301" y="1776" as="geometry">
                        <mxPoint x="-9" y="-6" as="offset"/>
                    </mxGeometry>
                </mxCell>
                <mxCell id="0hEqOD7Z_6EfmO8MXV1T-40" value="" style="endArrow=classic;html=1;fontSize=16;fontColor=#000000;strokeColor=#005700;strokeWidth=3;fillColor=#008a00;exitX=0.057;exitY=0.49;exitDx=0;exitDy=0;exitPerimeter=0;" edge="1" parent="Yg6gIH0kXs_u7WOj-Na7-1" source="0hEqOD7Z_6EfmO8MXV1T-47">
                    <mxGeometry width="50" height="50" relative="1" as="geometry">
                        <mxPoint x="54" y="1776" as="sourcePoint"/>
                        <mxPoint x="-59" y="1703" as="targetPoint"/>
                        <Array as="points">
                            <mxPoint x="-82" y="1776"/>
                            <mxPoint x="-82" y="1703"/>
                        </Array>
                    </mxGeometry>
                </mxCell>
                <mxCell id="0hEqOD7Z_6EfmO8MXV1T-41" value="" style="group" vertex="1" connectable="0" parent="Yg6gIH0kXs_u7WOj-Na7-1">
                    <mxGeometry x="9.999999999999886" y="1745" width="25.166666666666828" height="30" as="geometry"/>
                </mxCell>
                <mxCell id="0hEqOD7Z_6EfmO8MXV1T-42" value="" style="endArrow=none;html=1;fontColor=#33FF33;strokeWidth=3;fillColor=#008a00;strokeColor=#005700;" edge="1" parent="0hEqOD7Z_6EfmO8MXV1T-41">
                    <mxGeometry width="50" height="50" relative="1" as="geometry">
                        <mxPoint y="30" as="sourcePoint"/>
                        <mxPoint x="20" y="10" as="targetPoint"/>
                    </mxGeometry>
                </mxCell>
                <mxCell id="0hEqOD7Z_6EfmO8MXV1T-43" value="24bits" style="edgeLabel;html=1;align=center;verticalAlign=middle;resizable=0;points=[];fontColor=#000000;labelBackgroundColor=none;" vertex="1" connectable="0" parent="0hEqOD7Z_6EfmO8MXV1T-41">
                    <mxGeometry x="18.166666666666828" as="geometry">
                        <mxPoint x="7" as="offset"/>
                    </mxGeometry>
                </mxCell>
                <mxCell id="0hEqOD7Z_6EfmO8MXV1T-44" value="" style="group" vertex="1" connectable="0" parent="Yg6gIH0kXs_u7WOj-Na7-1">
                    <mxGeometry x="9.999999999999886" y="1675" width="25.166666666666828" height="30" as="geometry"/>
                </mxCell>
                <mxCell id="0hEqOD7Z_6EfmO8MXV1T-45" value="" style="endArrow=none;html=1;fontColor=#33FF33;strokeWidth=3;fillColor=#008a00;strokeColor=#005700;" edge="1" parent="0hEqOD7Z_6EfmO8MXV1T-44">
                    <mxGeometry width="50" height="50" relative="1" as="geometry">
                        <mxPoint y="30" as="sourcePoint"/>
                        <mxPoint x="20" y="10" as="targetPoint"/>
                    </mxGeometry>
                </mxCell>
                <mxCell id="0hEqOD7Z_6EfmO8MXV1T-46" value="24bits" style="edgeLabel;html=1;align=center;verticalAlign=middle;resizable=0;points=[];fontColor=#000000;labelBackgroundColor=none;" vertex="1" connectable="0" parent="0hEqOD7Z_6EfmO8MXV1T-44">
                    <mxGeometry x="18.166666666666828" as="geometry">
                        <mxPoint x="7" as="offset"/>
                    </mxGeometry>
                </mxCell>
                <mxCell id="0hEqOD7Z_6EfmO8MXV1T-47" value="" style="shadow=0;dashed=0;align=center;html=1;strokeWidth=3;shape=mxgraph.rtl.abstract.entity;container=1;collapsible=0;kind=demux;drawPins=0;left=1;right=4;bottom=0;fillColor=#FFFFFF;strokeColor=#000000;rotation=0;fontSize=14;" vertex="1" parent="Yg6gIH0kXs_u7WOj-Na7-1">
                    <mxGeometry x="-58.56999999999999" y="1752" width="10" height="50" as="geometry"/>
                </mxCell>
                <mxCell id="0hEqOD7Z_6EfmO8MXV1T-48" value="" style="endArrow=classic;html=1;fontSize=16;fontColor=#000000;strokeColor=#005700;strokeWidth=3;exitX=-0.042;exitY=0.721;exitDx=0;exitDy=0;fillColor=#008a00;exitPerimeter=0;entryX=1.021;entryY=0.154;entryDx=0;entryDy=0;entryPerimeter=0;" edge="1" parent="Yg6gIH0kXs_u7WOj-Na7-1" source="0hEqOD7Z_6EfmO8MXV1T-34">
                    <mxGeometry width="50" height="50" relative="1" as="geometry">
                        <mxPoint x="55.580999999999904" y="1764.1100000000001" as="sourcePoint"/>
                        <mxPoint x="-48.36000000000013" y="1763.6999999999998" as="targetPoint"/>
                    </mxGeometry>
                </mxCell>
                <mxCell id="0hEqOD7Z_6EfmO8MXV1T-49" value="" style="endArrow=classic;html=1;fontSize=16;fontColor=#000000;strokeColor=#005700;strokeWidth=3;fillColor=#008a00;entryX=1.021;entryY=0.154;entryDx=0;entryDy=0;entryPerimeter=0;exitX=1;exitY=0.5;exitDx=0;exitDy=0;" edge="1" parent="Yg6gIH0kXs_u7WOj-Na7-1" source="0hEqOD7Z_6EfmO8MXV1T-55">
                    <mxGeometry width="50" height="50" relative="1" as="geometry">
                        <mxPoint x="-170" y="1839" as="sourcePoint"/>
                        <mxPoint x="-48.570000000000164" y="1789" as="targetPoint"/>
                        <Array as="points">
                            <mxPoint y="1839"/>
                            <mxPoint y="1789"/>
                        </Array>
                    </mxGeometry>
                </mxCell>
                <mxCell id="0hEqOD7Z_6EfmO8MXV1T-50" value="" style="endArrow=classic;html=1;fontSize=16;fontColor=#000000;strokeColor=#A50040;strokeWidth=2;fillColor=#d80073;entryX=0.857;entryY=0.94;entryDx=0;entryDy=0;entryPerimeter=0;endFill=1;endSize=2;" edge="1" parent="Yg6gIH0kXs_u7WOj-Na7-1">
                    <mxGeometry width="50" height="50" relative="1" as="geometry">
                        <mxPoint x="-130" y="1819" as="sourcePoint"/>
                        <mxPoint x="-55" y="1797" as="targetPoint"/>
                        <Array as="points">
                            <mxPoint x="-55" y="1819"/>
                        </Array>
                    </mxGeometry>
                </mxCell>
                <mxCell id="0hEqOD7Z_6EfmO8MXV1T-51" value="Ps_outer_en" style="edgeLabel;html=1;align=center;verticalAlign=middle;resizable=0;points=[];fontColor=#FF0000;labelBackgroundColor=none;fontSize=14;fontStyle=1" vertex="1" connectable="0" parent="Yg6gIH0kXs_u7WOj-Na7-1">
                    <mxGeometry x="-112.00434782608698" y="1802" as="geometry">
                        <mxPoint x="-10" as="offset"/>
                    </mxGeometry>
                </mxCell>
                <mxCell id="0hEqOD7Z_6EfmO8MXV1T-52" value="" style="group" vertex="1" connectable="0" parent="Yg6gIH0kXs_u7WOj-Na7-1">
                    <mxGeometry x="-340.0000000000001" y="1819" width="25.166666666666828" height="30" as="geometry"/>
                </mxCell>
                <mxCell id="0hEqOD7Z_6EfmO8MXV1T-53" value="" style="endArrow=none;html=1;fontColor=#33FF33;strokeWidth=3;fillColor=#008a00;strokeColor=#005700;" edge="1" parent="0hEqOD7Z_6EfmO8MXV1T-52">
                    <mxGeometry width="50" height="50" relative="1" as="geometry">
                        <mxPoint y="30" as="sourcePoint"/>
                        <mxPoint x="20" y="10" as="targetPoint"/>
                    </mxGeometry>
                </mxCell>
                <mxCell id="0hEqOD7Z_6EfmO8MXV1T-54" value="16bits" style="edgeLabel;html=1;align=center;verticalAlign=middle;resizable=0;points=[];fontColor=#000000;labelBackgroundColor=none;" vertex="1" connectable="0" parent="0hEqOD7Z_6EfmO8MXV1T-52">
                    <mxGeometry x="18.166666666666828" as="geometry">
                        <mxPoint x="7" as="offset"/>
                    </mxGeometry>
                </mxCell>
                <mxCell id="0hEqOD7Z_6EfmO8MXV1T-55" value="Fix" style="rounded=1;whiteSpace=wrap;html=1;fillColor=none;strokeColor=#000000;strokeWidth=3;fontColor=#000000;fontSize=14;fontStyle=1;verticalAlign=bottom;" vertex="1" parent="Yg6gIH0kXs_u7WOj-Na7-1">
                    <mxGeometry x="-240" y="1830" width="50" height="19" as="geometry"/>
                </mxCell>
                <mxCell id="0hEqOD7Z_6EfmO8MXV1T-56" value="" style="endArrow=classic;html=1;fontSize=16;fontColor=#000000;strokeColor=#005700;strokeWidth=3;fillColor=#008a00;entryX=-0.053;entryY=0.426;entryDx=0;entryDy=0;entryPerimeter=0;" edge="1" parent="Yg6gIH0kXs_u7WOj-Na7-1" target="0hEqOD7Z_6EfmO8MXV1T-55">
                    <mxGeometry width="50" height="50" relative="1" as="geometry">
                        <mxPoint x="-350" y="1838" as="sourcePoint"/>
                        <mxPoint x="-285.47" y="1839.3" as="targetPoint"/>
                    </mxGeometry>
                </mxCell>
                <mxCell id="0hEqOD7Z_6EfmO8MXV1T-57" value="24bits" style="edgeLabel;html=1;align=center;verticalAlign=middle;resizable=0;points=[];fontColor=#000000;labelBackgroundColor=none;" vertex="1" connectable="0" parent="Yg6gIH0kXs_u7WOj-Na7-1">
                    <mxGeometry x="-169" y="1823" as="geometry"/>
                </mxCell>
                <mxCell id="0hEqOD7Z_6EfmO8MXV1T-58" value="" style="endArrow=none;html=1;fontColor=#33FF33;strokeWidth=3;fillColor=#008a00;strokeColor=#005700;" edge="1" parent="Yg6gIH0kXs_u7WOj-Na7-1">
                    <mxGeometry width="50" height="50" relative="1" as="geometry">
                        <mxPoint x="-179" y="1851" as="sourcePoint"/>
                        <mxPoint x="-159" y="1831" as="targetPoint"/>
                    </mxGeometry>
                </mxCell>
                <mxCell id="0hEqOD7Z_6EfmO8MXV1T-59" value="" style="endArrow=classic;html=1;fontSize=16;fontColor=#000000;strokeColor=#005700;strokeWidth=3;fillColor=#008a00;" edge="1" parent="Yg6gIH0kXs_u7WOj-Na7-1">
                    <mxGeometry width="50" height="50" relative="1" as="geometry">
                        <mxPoint x="60" y="1764" as="sourcePoint"/>
                        <mxPoint x="41" y="1820" as="targetPoint"/>
                        <Array as="points">
                            <mxPoint x="41" y="1764"/>
                        </Array>
                    </mxGeometry>
                </mxCell>
                <mxCell id="0hEqOD7Z_6EfmO8MXV1T-60" value="SAR" style="rounded=1;whiteSpace=wrap;html=1;fillColor=none;strokeColor=#000000;strokeWidth=3;fontColor=#000000;fontSize=14;fontStyle=1;verticalAlign=bottom;" vertex="1" parent="Yg6gIH0kXs_u7WOj-Na7-1">
                    <mxGeometry x="17.430000000000007" y="1821" width="50" height="19" as="geometry"/>
                </mxCell>
                <mxCell id="0hEqOD7Z_6EfmO8MXV1T-61" value="" style="endArrow=classic;html=1;fontSize=16;fontColor=#000000;strokeColor=#005700;strokeWidth=3;exitX=1;exitY=0.5;exitDx=0;exitDy=0;fillColor=#008a00;entryX=1.018;entryY=0.758;entryDx=0;entryDy=0;entryPerimeter=0;" edge="1" parent="Yg6gIH0kXs_u7WOj-Na7-1" source="0hEqOD7Z_6EfmO8MXV1T-60" target="0hEqOD7Z_6EfmO8MXV1T-65">
                    <mxGeometry width="50" height="50" relative="1" as="geometry">
                        <mxPoint x="159.28800000000035" y="1880.099" as="sourcePoint"/>
                        <mxPoint x="-350" y="1600" as="targetPoint"/>
                        <Array as="points">
                            <mxPoint x="170" y="1831"/>
                            <mxPoint x="170" y="1608"/>
                        </Array>
                    </mxGeometry>
                </mxCell>
                <mxCell id="0hEqOD7Z_6EfmO8MXV1T-62" value="" style="group;rotation=90;" vertex="1" connectable="0" parent="Yg6gIH0kXs_u7WOj-Na7-1">
                    <mxGeometry x="109.99999999999989" y="1812" width="25.166666666666828" height="30" as="geometry"/>
                </mxCell>
                <mxCell id="0hEqOD7Z_6EfmO8MXV1T-63" value="" style="endArrow=none;html=1;fontColor=#33FF33;strokeWidth=3;fillColor=#008a00;strokeColor=#005700;" edge="1" parent="0hEqOD7Z_6EfmO8MXV1T-62">
                    <mxGeometry width="50" height="50" relative="1" as="geometry">
                        <mxPoint y="30" as="sourcePoint"/>
                        <mxPoint x="20" y="10" as="targetPoint"/>
                    </mxGeometry>
                </mxCell>
                <mxCell id="0hEqOD7Z_6EfmO8MXV1T-64" value="8bits" style="edgeLabel;html=1;align=center;verticalAlign=middle;resizable=0;points=[];fontColor=#000000;labelBackgroundColor=none;" vertex="1" connectable="0" parent="0hEqOD7Z_6EfmO8MXV1T-62">
                    <mxGeometry x="-0.0033333333331739823" y="8" as="geometry">
                        <mxPoint x="10" y="-3" as="offset"/>
                    </mxGeometry>
                </mxCell>
                <mxCell id="0hEqOD7Z_6EfmO8MXV1T-65" value="" style="shadow=0;dashed=0;align=center;html=1;strokeWidth=3;shape=mxgraph.rtl.abstract.entity;container=1;collapsible=0;kind=demux;drawPins=0;left=1;right=4;bottom=0;fillColor=#FFFFFF;strokeColor=#000000;rotation=0;" vertex="1" parent="Yg6gIH0kXs_u7WOj-Na7-1">
                    <mxGeometry x="-360" y="1570" width="10" height="50" as="geometry"/>
                </mxCell>
                <mxCell id="0hEqOD7Z_6EfmO8MXV1T-66" value="" style="endArrow=classic;html=1;fontSize=16;fontColor=#000000;strokeColor=#005700;strokeWidth=3;fillColor=#008a00;entryX=0;entryY=0;entryDx=10;entryDy=10;entryPerimeter=0;" edge="1" parent="Yg6gIH0kXs_u7WOj-Na7-1" target="0hEqOD7Z_6EfmO8MXV1T-65">
                    <mxGeometry width="50" height="50" relative="1" as="geometry">
                        <mxPoint x="-420" y="1550" as="sourcePoint"/>
                        <mxPoint x="-240.00000000000003" y="1560.9999999999998" as="targetPoint"/>
                        <Array as="points">
                            <mxPoint x="-300" y="1550"/>
                            <mxPoint x="-300" y="1580"/>
                        </Array>
                    </mxGeometry>
                </mxCell>
                <mxCell id="0hEqOD7Z_6EfmO8MXV1T-67" value="8bits" style="edgeLabel;html=1;align=center;verticalAlign=middle;resizable=0;points=[];fontColor=#000000;labelBackgroundColor=none;" vertex="1" connectable="0" parent="0hEqOD7Z_6EfmO8MXV1T-66">
                    <mxGeometry x="-0.6699" y="2" relative="1" as="geometry">
                        <mxPoint x="-10" y="-10" as="offset"/>
                    </mxGeometry>
                </mxCell>
                <mxCell id="0hEqOD7Z_6EfmO8MXV1T-68" value="" style="endArrow=none;html=1;fontColor=#33FF33;strokeWidth=3;fillColor=#008a00;strokeColor=#005700;" edge="1" parent="Yg6gIH0kXs_u7WOj-Na7-1">
                    <mxGeometry width="50" height="50" relative="1" as="geometry">
                        <mxPoint x="-401.42999999999984" y="1561" as="sourcePoint"/>
                        <mxPoint x="-381.42999999999984" y="1541" as="targetPoint"/>
                    </mxGeometry>
                </mxCell>
                <mxCell id="0hEqOD7Z_6EfmO8MXV1T-69" value="" style="endArrow=classic;html=1;fontSize=16;fontColor=#000000;strokeColor=#A50040;strokeWidth=2;fillColor=#d80073;endSize=4;" edge="1" parent="Yg6gIH0kXs_u7WOj-Na7-1">
                    <mxGeometry width="50" height="50" relative="1" as="geometry">
                        <mxPoint x="42" y="1860" as="sourcePoint"/>
                        <mxPoint x="42" y="1840" as="targetPoint"/>
                        <Array as="points"/>
                    </mxGeometry>
                </mxCell>
                <mxCell id="0hEqOD7Z_6EfmO8MXV1T-70" value="Ps_fix_typ" style="edgeLabel;html=1;align=center;verticalAlign=middle;resizable=0;points=[];fontColor=#FF0000;labelBackgroundColor=none;fontSize=14;fontStyle=1" vertex="1" connectable="0" parent="Yg6gIH0kXs_u7WOj-Na7-1">
                    <mxGeometry x="50.995652173913015" y="1867" as="geometry">
                        <mxPoint x="-10" as="offset"/>
                    </mxGeometry>
                </mxCell>
                <mxCell id="0hEqOD7Z_6EfmO8MXV1T-71" value="" style="endArrow=classic;html=1;fontSize=16;fontColor=#000000;strokeColor=#A50040;strokeWidth=2;fillColor=#d80073;entryX=0.332;entryY=0.105;entryDx=0;entryDy=0;endSize=4;entryPerimeter=0;" edge="1" parent="Yg6gIH0kXs_u7WOj-Na7-1" target="0hEqOD7Z_6EfmO8MXV1T-65">
                    <mxGeometry width="50" height="50" relative="1" as="geometry">
                        <mxPoint x="-357" y="1530" as="sourcePoint"/>
                        <mxPoint x="-355.9300000000003" y="1570" as="targetPoint"/>
                    </mxGeometry>
                </mxCell>
                <mxCell id="0hEqOD7Z_6EfmO8MXV1T-72" value="Ps_back_en" style="edgeLabel;html=1;align=center;verticalAlign=middle;resizable=0;points=[];fontColor=#FF0000;labelBackgroundColor=none;fontSize=14;fontStyle=1" vertex="1" connectable="0" parent="Yg6gIH0kXs_u7WOj-Na7-1">
                    <mxGeometry x="-344.934347826087" y="1531" as="geometry">
                        <mxPoint x="-5" y="-13" as="offset"/>
                    </mxGeometry>
                </mxCell>
            </root>
        </mxGraphModel>
    </diagram>
</mxfile>